<?xml version="1.0" encoding="UTF-8"?><svg id="Capa_2" xmlns="http://www.w3.org/2000/svg" viewBox="0 0 83.85 121.6"><defs><style>.cls-1{opacity:.5;}.cls-1,.cls-2,.cls-3,.cls-4,.cls-5,.cls-6,.cls-7,.cls-8,.cls-9{stroke-width:0px;}.cls-1,.cls-8{fill:#fff;}.cls-2{fill:#231f20;opacity:.3;}.cls-3{fill:#282525;}.cls-4{fill:#3d1f1f;}.cls-5{fill:#232f55;}.cls-6{fill:#ae0000;}.cls-7{fill:#e1e5f4;}.cls-9{fill:#f0d045;}</style></defs><g id="halloween19"><path class="cls-4" d="m58.79,111.18c-.63,0-1.18-.45-1.29-1.08-.12-.68.29-1.33.95-1.51,6.7-1.82,11.89-11.67,11.44-18.47-.52-7.86-4.98-8.18-11.16-8.61-2.73-.19-5.56-.39-8.29-1.29-5.3-1.75-9.65-3.32-13.7-4.93-4.4-1.76-8.53-4.37-11.99-6.7-.6-.41-1.24-.81-1.92-1.23-2.93-1.84-6.25-3.93-7.89-7.22l-.45-.36c-.48.65-1.12,1.13-1.73,1.46l.52,3.83c.08.56-.21,1.11-.72,1.36-.19.09-.39.14-.59.14-.03,0-.06,0-.09,0-.1.29-.3.54-.59.71l-1.53.88c-.21.12-.43.17-.65.17-.04,0-.07,0-.1,0-.12.14-.28.25-.44.32l-2.43,1.1c-.17.08-.36.12-.55.12-.4,0-.79-.18-1.05-.52L.27,63.75c-.32-.42-.36-1-.09-1.46l6.15-10.67c.24-.42.68-.66,1.14-.66.12,0,.24.02.36.05l2.05.59c-.36-.91-.66-1.86-.91-2.85-.54-1.11-.9-2.18-1.11-3.27-.8-4.05-.79-8.4.03-12.94-.44-3.18-.13-6.45.92-9.72,2.51-7.79,5.88-12.86,10.92-16.44C25.26,2.45,32.46,0,38.52,0h.23c6.75.07,12.72,3.4,17.27,9.63,3.76,5.14,6.11,11.74,6.64,18.58.26,3.29.25,6.82-.03,10.5-.19,2.55-.8,4.97-1.39,7.31-.22.89-.45,1.81-.66,2.72-.64,2.88-1.79,10.09,1.51,14.92,1.17,1.71,3.7,2.33,6.37,2.98,2.46.6,5.01,1.22,7.01,2.76,7.18,5.53,9.93,13.47,7.54,21.8-3.02,10.52-13.15,18.92-24.09,19.98-.04,0-.09,0-.13,0Z"/><path class="cls-4" d="m49.37,113.92s-.09,0-.13,0c-.47-.05-.87-.34-1.07-.76-1.42-3.11-.73-6.55,2-9.95,1.93-2.41,4.22-3.97,4.32-4.03.22-.15.48-.23.74-.23s.49.07.71.21c.44.28.67.8.59,1.32-.92,5.8-5.88,12.63-6.1,12.92-.25.34-.65.54-1.06.54Z"/><path class="cls-4" d="m53.76,121.6c-.26,0-.52-.08-.74-.22-.31-.21-.52-.54-.57-.91-.88-6.4-.18-7.7.72-8.15.19-.09.39-.14.59-.14.38,0,.75.17,1.01.47,2.03,2.43,2.78,4.55,2.21,6.29-.65,2-2.67,2.57-2.9,2.62-.1.02-.21.04-.32.04Z"/><path class="cls-6" d="m74.67,70.44c-3.99-3.07-11.04-2.2-13.67-6.05-2.98-4.38-2.86-10.81-1.71-15.95.74-3.3,1.77-6.45,2.02-9.84.26-3.4.29-6.9.03-10.3-.49-6.33-2.64-12.76-6.4-17.9-3.95-5.4-9.38-9.02-16.22-9.09-6.18-.06-13.25,2.58-18.25,6.14-5.5,3.9-8.39,9.47-10.42,15.77-.99,3.08-1.31,6.2-.84,9.34-.77,4.17-.89,8.5-.07,12.67.21,1.09.59,2.11,1.06,3.07.47,1.88,1.16,3.69,2.09,5.37l-4.84-1.4-6.15,10.67,4.28,5.6,2.43-1.1-2.32-4.28,3.4,3.84,1.53-.88-2.62-4.83,3.96,3.95-.67-4.84s2.41-.65,2.63-2.74l2.06,1.62c.03.06.06.13.09.19,1.81,3.7,6.13,5.81,9.4,8.01,3.68,2.47,7.61,4.92,11.74,6.57,4.48,1.79,9.03,3.39,13.62,4.9,8.69,2.87,19.51-1.74,20.36,11.07.48,7.3-4.98,17.81-12.41,19.83,18.57-1.8,33.5-25.85,15.87-39.42Z"/><path class="cls-6" d="m49.37,112.6s4.98-6.79,5.86-12.35c0,0-8.79,5.93-5.86,12.35Z"/><path class="cls-6" d="m53.76,120.28s4.69-1.18,0-6.79c0,0-.88.44,0,6.79Z"/><path class="cls-7" d="m74.67,70.44c-3.99-3.07-11.04-2.2-13.67-6.05-2.98-4.38-2.86-10.81-1.71-15.95.74-3.3,1.77-6.45,2.02-9.84.26-3.4.29-6.9.03-10.3-.49-6.33-2.64-12.76-6.4-17.9-3.95-5.4-9.38-9.02-16.22-9.09-6.18-.06-13.25,2.58-18.25,6.14-5.5,3.9-8.39,9.47-10.42,15.77-.99,3.08-1.31,6.2-.84,9.34-.77,4.17-.89,8.5-.07,12.67.21,1.09.59,2.11,1.06,3.07.61,2.42,1.57,4.74,2.96,6.8.7,1.03,1.48,2.02,2.3,2.97.19.48.39.95.62,1.41,1.81,3.7,6.13,5.81,9.4,8.01,3.68,2.47,7.61,4.92,11.74,6.57,4.48,1.79,9.03,3.39,13.62,4.9,8.69,2.87,19.51-1.74,20.36,11.07.48,7.3-4.98,17.81-12.41,19.83,18.57-1.8,33.5-25.85,15.87-39.42Zm-46.81-5.02s.02,0,.03,0c.37.24.74.48,1.11.72.06.05.11.09.17.14-.44-.28-.88-.56-1.31-.85Z"/><path class="cls-8" d="m35.09,3.3s-1.71,17.09,0,16.6c1.71-.49,10.34,12.8,7.63,22.12,0,0-4.46,26.31,13.7,29.53l-4.39-8.18,15.52,8.18s-12.01-3.23-10.84-18.46c1.17-15.23,10.35-45.11-21.62-49.79Z"/><circle class="cls-2" cx="39.97" cy="30.6" r="7.64"/><path class="cls-5" d="m48.27,28.75c0,4.59-3.72,8.3-8.3,8.3s-8.3-3.72-8.3-8.3,3.72-8.3,8.3-8.3,8.3,3.72,8.3,8.3Z"/><path class="cls-9" d="m47.61,28.75c0,4.22-3.42,7.64-7.64,7.64s-7.64-3.42-7.64-7.64,3.42-7.64,7.64-7.64,7.64,3.42,7.64,7.64Z"/><path class="cls-3" d="m42.72,28.75c0,1.52-1.23,2.76-2.76,2.76s-2.76-1.24-2.76-2.76,1.23-2.76,2.76-2.76,2.76,1.24,2.76,2.76Z"/><path class="cls-1" d="m39.97,26.18c0,1.35-1.09,2.44-2.44,2.44s-2.44-1.09-2.44-2.44,1.09-2.44,2.44-2.44,2.44,1.09,2.44,2.44Z"/><path class="cls-2" d="m27.26,33.89c0,4.22-3.42,7.64-7.64,7.64s-7.64-3.42-7.64-7.64,3.42-7.63,7.64-7.63,7.64,3.42,7.64,7.63Z"/><circle class="cls-5" cx="19.62" cy="32.03" r="8.3"/><path class="cls-9" d="m27.26,32.03c0,4.22-3.42,7.64-7.64,7.64s-7.64-3.42-7.64-7.64,3.42-7.64,7.64-7.64,7.64,3.42,7.64,7.64Z"/><path class="cls-3" d="m22.38,32.03c0,1.52-1.24,2.76-2.76,2.76s-2.76-1.23-2.76-2.76,1.23-2.76,2.76-2.76,2.76,1.23,2.76,2.76Z"/><path class="cls-1" d="m19.62,29.46c0,1.35-1.09,2.44-2.44,2.44s-2.44-1.09-2.44-2.44,1.09-2.44,2.44-2.44,2.44,1.09,2.44,2.44Z"/><path class="cls-7" d="m55.23,100.26s-8.79,5.93-5.86,12.35c0,0,4.98-6.79,5.86-12.35Z"/><path class="cls-7" d="m53.76,113.49s-.88.44,0,6.79c0,0,4.69-1.18,0-6.79Z"/><path class="cls-7" d="m14.74,54.38l-7.27-2.1-6.15,10.67,4.28,5.6,2.43-1.1-2.32-4.28,3.4,3.84,1.53-.88-2.62-4.83,3.96,3.95-.67-4.84s2.41-.65,2.63-2.74l4.72,3.73s1.03-3.29-3.93-7.03Z"/><path class="cls-2" d="m22.38,62.76c-.12.38,6.51,6.01,6.84,5.79.33-.22,4.17-1.23,4.17-1.23,0,0-.11-3.06,0-2.62.11.44,1.7,2.62,1.7,2.62,0,0-.17-6.35,0-6.03.17.33,2.12,3.62,2.12,3.62l-.52-6.81,3.02,1.07-2.49-4.92s-13.07,2.89-14.83,8.49Z"/><path class="cls-7" d="m37.03,53.15l-7.27-2.1-6.15,10.67,4.28,5.6,2.43-1.1-2.32-4.28,3.4,3.84,1.54-.88-2.63-4.83,3.95,3.95-.67-4.84s2.41-.65,2.63-2.74l4.72,3.73s1.04-3.29-3.93-7.03Z"/><path class="cls-6" d="m19.62,49.38l20.08-4.26s-4.75,19.58-20.08,4.26Z"/></g></svg>