<?xml version="1.0" encoding="UTF-8"?><svg id="Capa_2" xmlns="http://www.w3.org/2000/svg" viewBox="0 0 125.04 114.59"><defs><style>.cls-1{fill:#4e0002;opacity:.3;}.cls-1,.cls-2,.cls-3,.cls-4,.cls-5,.cls-6,.cls-7{stroke-width:0px;}.cls-2{fill:#5a3721;}.cls-3{fill:#252524;}.cls-4{fill:#d1d300;}.cls-5{fill:#d3c8a6;}.cls-6{fill:#f4510c;}.cls-7{fill:#fff;}</style></defs><g id="halloween3"><path class="cls-1" d="m14.74,65.09s20.92,7.48,38.59,5.44c0,0,37.4,5.6,52.63.35,0,0-29.1,9.44-52.63,4.95,0,0-24.67,8.71-38.59-10.74Z"/><path class="cls-4" d="m2.49,17.87S6.16-6.32,47.23,1.59c0,0,12.96,3.59,14.5,3.03,1.54-.56,30.04-9.97,46.53,3.17,16.48,13.14,25.06,28.78,5.61,47.07-19.46,18.29-61.33,6.48-61.33,6.48,0,0-66.02,5.19-50.04-43.47Z"/><path class="cls-1" d="m112.13,48.77c-21.56,17.02-64.89,2.57-64.89,2.57,0,0-32.41.45-46.79-14.33,5.13,28.02,52.08,24.33,52.08,24.33,0,0,41.87,11.81,61.33-6.48,9.07-8.53,12.05-16.49,10.97-23.88-1.12,5.79-5.03,11.74-12.7,17.79Z"/><path class="cls-3" d="m117.66,30.12c0,11.44-9.27,20.71-20.71,20.71H23.09c-11.44,0-20.71-9.27-20.71-20.71h0c0-11.44,9.27-20.71,20.71-20.71h73.87c11.44,0,20.71,9.27,20.71,20.71h0Z"/><path class="cls-2" d="m16.47,47.15s17.93-27.05,36.28-16.25c0,0,52.05-11.1,49.62,13.72,0,0-2.35,17.75-85.9,2.52Z"/><path class="cls-6" d="m91.02,108.87c0,3.16-2.56,5.72-5.72,5.72h0c-3.16,0-5.72-2.56-5.72-5.72v-55.86c0-3.16,2.56-5.72,5.72-5.72h0c3.16,0,5.72,2.56,5.72,5.72v55.86Z"/><path class="cls-5" d="m21.87,9.53v9.08c0,2.51,2.03,4.54,4.53,4.54s4.53-2.03,4.53-4.54v-9.08h-9.07Z"/><path class="cls-5" d="m84.36,9.53v9.08c0,2.51,2.03,4.54,4.53,4.54s4.53-2.03,4.53-4.54v-9.08h-9.07Z"/><path class="cls-5" d="m67.25,9.53v9.08c0,2.51,2.03,4.54,4.53,4.54s4.53-2.03,4.53-4.54v-9.08h-9.07Z"/><path class="cls-6" d="m84.36,50.83s-47.79-9-53.43,2.49c0,0,62.71,18.2,53.43-2.49Z"/><path class="cls-7" d="m88.9,102.11c0,.36-.29.65-.65.65h0c-.36,0-.65-.29-.65-.65v-44.56c0-.36.29-.65.65-.65h0c.36,0,.65.29.65.65v44.56Z"/><path class="cls-6" d="m73.4,78.02c0,1-.81,1.81-1.81,1.81h0c-1,0-1.81-.81-1.81-1.81v-23.23c0-1,.81-1.81,1.81-1.81h0c1,0,1.81.81,1.81,1.81v23.23Z"/></g></svg>