<?xml version="1.0" encoding="UTF-8"?><svg xmlns="http://www.w3.org/2000/svg" viewBox="0 0 89.09 122.45"><defs><style>.cls-1{fill:#fefb01;}.cls-1,.cls-2,.cls-3,.cls-4,.cls-5,.cls-6,.cls-7,.cls-8,.cls-9,.cls-10,.cls-11,.cls-12{stroke-width:0px;}.cls-1,.cls-12{mix-blend-mode:overlay;}.cls-13{isolation:isolate;}.cls-2{fill:#301a2e;opacity:.3;}.cls-3{fill:#282525;}.cls-4{fill:#2b2b28;}.cls-5{fill:#c4c4c4;}.cls-6{fill:#c5c5c3;}.cls-7{fill:#a8b3b7;}.cls-8{fill:#8b9698;}.cls-9{fill:#333;}.cls-10{fill:#f1f2f2;}.cls-11,.cls-12{fill:#fff;}.cls-12{opacity:.5;}</style></defs><g class="cls-13"><g id="Capa_2"><g id="halloween5"><path class="cls-6" d="m3.53,69.6c.27.3,8.19.39,8.19.39l1.18,5.68h-2.98l-1.26,3.78s-7.57.09-7.21,0c.36-.09,2.07-9.85,2.07-9.85Z"/><polygon class="cls-4" points="24.69 66.39 11.72 66.95 11.72 80.17 26.76 74.38 24.69 66.39"/><polygon class="cls-1" points="11.72 66.95 11.72 73.33 28.25 68.94 24.69 66.39 11.72 66.95"/><path class="cls-7" d="m23.43,3.86c.49-1.2-22.71,77.58-18.74,118.58H0S.36,60.45,23.43,3.86Z"/><path class="cls-5" d="m15.87,8.74c1.08.43,32.44-20.59,71,1.09,0,0-54.77-2.36-72.62,20.48l1.62-21.57Z"/><path class="cls-8" d="m14.7,24.38l-.44,5.93C32.11,7.47,86.88,9.83,86.88,9.83,45.85,3.18,22.51,18.04,14.7,24.38Z"/><path class="cls-6" d="m16.75,27.17c0,1.39-1.13,2.52-2.52,2.52h0c-1.39,0-2.52-1.13-2.52-2.52V6.71c0-1.39,1.13-2.52,2.52-2.52h0c1.39,0,2.52,1.13,2.52,2.52v20.47Z"/><rect class="cls-10" x="2.09" y="69.6" width="7.75" height="3"/><rect class="cls-10" x="2.09" y="73.04" width="7.75" height="3"/><rect class="cls-10" x="2.09" y="76.05" width="7.75" height="3"/><path class="cls-4" d="m47.23,27.72c-1.08.05-28.47,23.31-27.39,60.68,0,0-.18,26.91,5.77,31.24,5.95,4.33,62.71,0,62.71,0,0,0,2.88-5.59-2.52-7.03-5.41-1.44-32.26-27.54-22.89-55.49,9.37-27.95,23.07-32.45-1.26-39.48,0,0,11.35,8.82-14.42,10.09Z"/><path class="cls-1" d="m37.93,119.47c-.89-.95-12.57-26.68-12.81-27.49-.24-.8-1.69-22.38-1.69-22.38l4.81-.66,4.32-13.41,15.23-23.05,13.6-7.33c-2.42,1.22-6.76,2.21-14.17,2.58-1.08.05-28.47,23.31-27.39,60.68,0,0-.18,26.91,5.77,31.24,1.64,1.19,7.14,1.73,14.25,1.88-.95-1.01-1.69-1.79-1.92-2.05Z"/><polygon class="cls-9" points="40.26 38.58 61.41 39.8 54.44 59.39 46.75 63.47 42.66 69.6 33.29 65.65 28.97 59.63 40.26 38.58"/><path class="cls-11" d="m34.59,53.02c-.41-1.23,0-10.87,0-10.87,0,0,21.73.82,22.35,0,.61-.82-3.27,15.12-3.27,15.12l-9.64,3.13-3.9,8.54-9.63-3.41,3.28-8.18.82-4.32Z"/><path class="cls-3" d="m40.74,50.32c0,1.53-1.24,2.77-2.77,2.77s-2.77-1.24-2.77-2.77,1.24-2.77,2.77-2.77,2.77,1.24,2.77,2.77Z"/><path class="cls-3" d="m53.33,50.32c0,1.53-1.24,2.77-2.77,2.77s-2.77-1.24-2.77-2.77,1.24-2.77,2.77-2.77,2.77,1.24,2.77,2.77Z"/><path class="cls-3" d="m34.8,59c-.02,1.12-.26,2.22-.36,3.33-.09.93,1.36.92,1.44,0,.11-1.12.34-2.21.36-3.33.01-.93-1.43-.93-1.44,0Z"/><path class="cls-3" d="m38.91,59.08c-.29-.88-1.68-.5-1.39.38.15.46-.11,1.11-.22,1.56-.17.74-.34,1.46-.44,2.21-.11.92,1.33.91,1.44,0,.1-.82.34-1.62.51-2.42.12-.58.29-1.14.09-1.73Z"/><path class="cls-3" d="m39.93,59.54c-.02,1.21-.34,2.35-.7,3.5-.27.89,1.12,1.27,1.39.38.39-1.27.72-2.55.75-3.88.02-.93-1.42-.93-1.44,0Z"/><path class="cls-3" d="m40.83,53.77c-.93,0-.93,1.44,0,1.44s.93-1.44,0-1.44Z"/><path class="cls-3" d="m43.54,54.04c-.93,0-.93,1.44,0,1.44s.93-1.44,0-1.44Z"/><polyline class="cls-2" points="51.46 42.51 51.46 46.56 53.99 47.1 50.57 56.74 53.99 57.29 56.93 42.15 51.1 42.51"/><path class="cls-12" d="m24.67,21.53c4.98-2.92,10.75-5.12,16.73-6.78L43.5.39c-3.32.35-6.4.91-9.21,1.59-2.89,5.73-7.45,15.09-9.62,19.56Z"/></g></g></g></svg>