<?xml version="1.0" encoding="UTF-8"?><svg xmlns="http://www.w3.org/2000/svg" xmlns:xlink="http://www.w3.org/1999/xlink" viewBox="0 0 124.43 110.02"><defs><style>.cls-1{clip-path:url(#clippath);}.cls-2,.cls-3{fill:#2b2b28;}.cls-4{mix-blend-mode:overlay;}.cls-4,.cls-5,.cls-3,.cls-6,.cls-7,.cls-8,.cls-9,.cls-10{stroke-width:0px;}.cls-4,.cls-10{fill:#fefb01;}.cls-11{isolation:isolate;}.cls-5{fill:#51514a;}.cls-6{fill:#404040;}.cls-7{fill:#b5b5ac;}.cls-8{fill:#333;}.cls-9{fill:#f0d045;}</style><clipPath id="clippath"><path class="cls-3" d="m35.55,75.22c-.31-.73,15.52-48.95,15.27-48.13-.25.82,13.77-18.17,13.77-18.17L92.88.6l3.25,12.28-6.01-6.01-10.77,2.04.5,23.03,9.76,36.01.25,14.52s-41.56,22.53-54.33-7.26Z"/></clipPath></defs><g class="cls-11"><g id="Capa_2"><g id="halloween13"><path class="cls-5" d="m45.56,70.97l-13.02-3-6.01,7.76H9.76l1.75,5.26-11.52,3.51,10.26,4.01s-5.26,8.26-4.51,8.26h16.03l6.01,9.76,19.78-3.75,16.02,7.26,14.02-8.76,16.52,5.01,7.26-8.26,20.28,2-7.26-7.51,10.01-1.85-12.27-5.66v-4.76l-26.54-8.26-40.06-1Z"/><path class="cls-2" d="m35.55,75.22c-.31-.73,15.52-48.95,15.27-48.13-.25.82,13.77-18.17,13.77-18.17L92.88.6l3.25,12.28-6.01-6.01-10.77,2.04.5,23.03,9.76,36.01.25,14.52s-41.56,22.53-54.33-7.26Z"/><g class="cls-1"><path class="cls-7" d="m116.85,31.62c-15.58,4.45-31.15,8.88-46.5,14.07-13.57,4.59-31.1,9.44-42.62,18.19-1.91,1.45-.03,4.73,1.91,3.26,11.53-8.77,28.19-13.11,41.72-17.81,15.3-5.31,30.93-9.63,46.5-14.07,2.34-.67,1.34-4.31-1-3.64Z"/><path class="cls-7" d="m98.61,22.18c-20.31,6.43-40.06,14.18-58.94,24.09-2.15,1.13-.25,4.39,1.9,3.26,18.59-9.76,38.04-17.38,58.04-23.71,2.31-.73,1.32-4.38-1-3.64Z"/><path class="cls-7" d="m99.11,18.34c-18.33,1.03-35.83,2.18-53.33,8.24-2.28.79-1.3,4.44,1,3.64,17.12-5.93,34.4-7.1,52.33-8.11,2.42-.14,2.43-3.91,0-3.77Z"/><path class="cls-7" d="m102.26,13.31c-11.53-.8-23.05-.78-34.58-.48-4.82.12-9.64.3-14.47.48-2.43.09-2.43,3.87,0,3.77,16.36-.63,32.7-1.13,49.05,0,2.43.17,2.41-3.61,0-3.77Z"/><path class="cls-7" d="m85.59,7C77.4,4,68.78,2.56,60.43.09c-2.34-.69-3.33,2.95-1,3.64,8.35,2.47,16.96,3.91,25.16,6.92,2.29.84,3.27-2.81,1-3.64Z"/><path class="cls-7" d="m119.99,51.74c-33.1,5.6-68.85,12.79-98.56,29.12-2.13,1.17-.23,4.43,1.91,3.26,29.36-16.13,64.93-23.2,97.65-28.74,2.4-.41,1.38-4.04-1-3.64Z"/></g><path class="cls-4" d="m66.47,17.06l-8.26,11.95s-6.9,41.45-3.52,59.97l-13.59-12.83,9.72-49.07,15.64-10.02Z"/><path class="cls-10" d="m33,71.64l-2.61,6.84s-16.88.47-16.17,0c.71-.47,4.01,5.69,4.01,5.69l-9.2,1.2s6.48,1.13,7.6,1.37c1.12.24-3.12,7.36-3.12,7.36h21.69l-27.12,2.1,4.29-7.2-7.35-3.62,9.67-2.41-4.24-5.19,17.21-.23,5.34-5.9Z"/><polygon class="cls-10" points="60.34 102.65 73.53 91.99 88.98 96.63 97.94 87.62 112.33 94.09 98.18 93.19 93.58 102.65 75.27 98.37 62.1 107.16 60.34 102.65"/><path class="cls-6" d="m94.46,31.49c-.16.14-.3.29-.43.45-1.04.77-1.2,2.2-1.15,3.5.06,1.49.67,3.32,2.17,3.9,1.68.65,3-.64,3.38-2.16.33-1.31.08-3-.34-4.25-.51-1.51-2.22-2.63-3.63-1.43Z"/><path class="cls-6" d="m96.19,36.75c-1.24,0-2.51.73-3.33,1.61-.62.67-.77,1.55-.49,2.28-.02.93.44,1.86,1.29,2.28,1.42.69,3.37-.11,4.5-1.05.95-.78,1.64-1.93,1.31-3.18-.39-1.45-1.92-1.95-3.28-1.95Z"/><path class="cls-6" d="m102.49,35.91c-.56-.32-1.12-.64-1.67-.95-.33-.19-.57-.46-.89-.65-.17-.1-.4-.22-.59-.09l-1.58,1.13c-.08.05-.09.16-.04.23l.05.07c.07.1.19.08.27,0,.02-.02.04-.03.05-.05.02-.02.04-.07.04-.11l1.01-.72c.44-.31.73-.2,1.04.19.2.24.65.39.91.54.42.24.84.47,1.26.72.18.11.32-.2.14-.31Z"/><path class="cls-6" d="m99.74,35.79c-.59.42-1.15.92-1.79,1.27-.19.11,0,.38.2.28.55-.31,1.05-.73,1.57-1.11.03.1.07.19.14.28.33.51.51,1.11.74,1.68.39.96.84,1.88,1.27,2.82-.59-.02-1.09.45-1.52.87-.91.88-1.48,2.13-2.04,3.25-.1.19.21.33.31.14.39-.78.79-1.56,1.28-2.29.4-.59,1.34-1.91,2.2-1.6.12.05.29-.07.23-.21-.43-.93-.88-1.85-1.28-2.8-.2-.48-.39-.95-.58-1.43-.13-.34-.43-.66-.45-1.02,0-.13-.16-.19-.27-.12Z"/><path class="cls-6" d="m96.25,26.22c-.13-.65-.29-1.29-.53-1.91-.07-.2-.39-.09-.31.12.43,1.14.59,2.35.88,3.53.14.57.38,1.51.91,1.87.24.16.64.06.93.18.73.31,1.25.92,1.71,1.54.34.47-.24.8-.56,1.18-.43.5-.93,1.32-1.59,1.54-.21.07-.09.39.11.32.49-.17.84-.6,1.18-.97.44-.47.99-1.04,1.35-1.56.38-.56-1.07-1.72-1.46-2-.37-.27-.8-.48-1.26-.53-.49-.06-.54-.44-.74-.83-.38-.72-.45-1.68-.61-2.47Z"/><path class="cls-6" d="m91.21,28.44c.24.47.43.95.6,1.44.22.64.62,1.35.4,2.05-.32,1.02-.9,1.98-1.26,3-.04.1.01.22.13.24.77.13,1.43.37,2.23.31.22-.01.19-.35-.03-.34-.71.05-1.29-.14-1.95-.27.18-.5.42-1.06.67-1.5.24-.42.52-1.11.6-1.57.08-.5-.12-1.11-.29-1.57-.24-.64-.46-1.29-.78-1.9-.1-.19-.42-.08-.32.11Z"/><path class="cls-6" d="m93.6,36.53c-.26-.16-1.34-.7-1.64-.38-.26.28-.33.67-.55.98-.2.28-.39.57-.57.87-.11.19.2.33.31.14.26-.45.61-.84.83-1.32.12-.27.18-.43.52-.37.32.06.69.22.96.38.19.11.32-.2.14-.31Z"/><path class="cls-6" d="m94.14,37.83c-.77.17-1.54-.26-2.33-.21-.05,0-.12.04-.14.1-.49,1.45-1.41,2.54-2.2,3.82-.11.18.13.39.26.21.45-.6,3.53,2.61,3.68,2.78.14.15.41-.01.28-.2l-.05-.07s-.04-.04-.07-.06c-.79-.85-1.68-1.65-2.59-2.37-.24-.19-.62-.47-.97-.52.52-.77,1.09-1.49,1.51-2.31.11-.21.21-.43.3-.65.2-.48.52-.39.95-.3.47.1.92.22,1.4.11.21-.04.18-.38-.03-.34Z"/><path class="cls-6" d="m94.92,42.12c-.14-.17-.42.03-.28.2.15.17-.46.93-.6,1.05-.15.13-.02.34.16.3.36-.08,1.01.95,1.05,1.22.04.21.37.18.34-.03-.07-.45-.43-.82-.72-1.16-.12-.14-.24-.25-.39-.31.31-.37.68-.96.43-1.26Z"/><path class="cls-6" d="m98.93,40.92c-.2.15-.39.34-.61.46v-.02c-.14-.18-.41.02-.29.2l.1.14c.04.06.13.09.2.06.13-.05.24-.12.35-.2-.06.15-.12.31-.15.47-.09.39-.17.8-.38,1.15-.11.19.2.32.31.14.21-.36.27-.74.38-1.13.11-.37.27-.72.37-1.09.04-.15-.16-.25-.27-.16Z"/><path class="cls-9" d="m96.83,39.88c.52.72.36,1.72-.35,2.22-.71.5-1.7.33-2.22-.4-.52-.72-.36-1.72.35-2.22.71-.5,1.7-.33,2.22.4Z"/><path class="cls-8" d="m96,40.47c.18.26.13.62-.12.79-.25.18-.61.12-.79-.14-.19-.26-.13-.61.13-.8.25-.18.6-.11.79.14Z"/><rect class="cls-3" x="95.2" y="11.94" width=".93" height="21.9"/></g></g></g></svg>