<?xml version="1.0" encoding="UTF-8"?><svg id="Capa_2" xmlns="http://www.w3.org/2000/svg" viewBox="0 0 68.37 121.05"><defs><style>.cls-1{fill:#4e0002;opacity:.3;}.cls-1,.cls-2,.cls-3,.cls-4,.cls-5,.cls-6,.cls-7,.cls-8,.cls-9{stroke-width:0px;}.cls-2{fill:#f8f0cc;}.cls-3{fill:#414042;}.cls-4{fill:#df3c31;}.cls-5{fill:#8d3b44;}.cls-6{fill:#f1f2f2;}.cls-7{fill:#fff;}.cls-8{fill:#eae2c1;}.cls-9{fill:#f06f66;}</style></defs><g id="halloween11"><path class="cls-5" d="m36.25,117.92c0,1.73-1.41,3.14-3.14,3.14h0c-1.73,0-3.14-1.41-3.14-3.14V36.53c0-1.73,1.4-3.14,3.14-3.14h0c1.73,0,3.14,1.41,3.14,3.14v81.38Z"/><path class="cls-7" d="m34.79,79.84v-32.24c0-.5-.4-.9-.9-.9s-.9.4-.9.9v32.24h1.8Z"/><path class="cls-7" d="m32.99,89.59v23.13c0,.49.41.9.9.9s.9-.41.9-.9v-23.13h-1.8Z"/><rect class="cls-1" x="29.98" y="51.53" width="6.27" height="25.69"/><path class="cls-8" d="m7.34,52.76s-2.22,6.2,2.17,9.38c4.39,3.18,15.48,13.06,32.25,9.4,16.76-3.66,30.64-23.66,25.54-31.93L7.34,52.76Z"/><path class="cls-2" d="m67.78,33.89c0,18.72-15.17,33.89-33.89,33.89S0,52.61,0,33.89,15.17,0,33.89,0s33.89,15.18,33.89,33.89Z"/><path class="cls-9" d="m33.89,29.49s18.57-8.86,17.5-24.62C46.71,2.04,41.28.31,35.48.04c2.46,6.11,6.17,19.17-1.58,29.44Z"/><path class="cls-9" d="m29.05,29.88s1.44-18.38-10.44-26.24c-4.88,2.47-9.07,6.08-12.24,10.49,6.93,1.3,18.14,5.03,22.68,15.76Z"/><path class="cls-9" d="m26.98,34.28S12.75,24.49.28,29.62c-.18,1.4-.28,2.83-.28,4.27,0,4.2.77,8.23,2.17,11.94,4.64-5.34,13.4-12.97,24.81-11.56Z"/><path class="cls-9" d="m29.75,38.26s-16.3,7.78-17.48,21.73c4.43,3.67,9.81,6.23,15.72,7.27-2.45-6.29-5.81-18.97,1.76-29Z"/><path class="cls-9" d="m61.05,54.17c-5.55-.56-20.94-3.27-26.47-16.31,0,0-1.6,20.26,12.3,27.34,5.66-2.35,10.55-6.19,14.17-11.03Z"/><path class="cls-9" d="m36.66,33.47s17.85,12.27,31.09,2.13c.03-.56.04-1.13.04-1.71,0-5.52-1.33-10.73-3.67-15.33-3.14,4.4-13.24,16.66-27.46,14.91Z"/><path class="cls-1" d="m61.23,42.47c-4.33,14.57-19.64,22.86-34.21,18.53-14.57-4.33-22.86-19.65-18.53-34.21C12.82,12.22,28.14,3.93,42.7,8.25c14.57,4.33,22.86,19.65,18.53,34.21Z"/><path class="cls-2" d="m58.87,41.32c-4.1,13.8-18.61,21.66-32.41,17.55-13.79-4.1-21.65-18.61-17.55-32.4C13.01,12.67,27.52,4.81,41.32,8.91c13.79,4.1,21.65,18.61,17.55,32.41Z"/><path class="cls-9" d="m34.86,30.64s15.63-2.46,18.29-14.31c-2.83-3.11-6.45-5.57-10.68-7.04.48,5.05.35,15.48-7.62,21.35Z"/><path class="cls-9" d="m31.21,29.88s5.09-13.23-1.95-21.63c-4.14.75-8.02,2.49-11.32,5.04,4.82,2.48,12.27,7.68,13.27,16.59Z"/><path class="cls-9" d="m28.72,32.66s-8.35-10.34-18.67-9.28c-.43,1-.82,2.02-1.14,3.09-.92,3.1-1.23,6.23-1.02,9.28,4.59-2.92,12.72-6.62,20.82-3.08Z"/><path class="cls-9" d="m29.88,36.21s-13.73,2.16-17.64,12.19c2.46,3.68,5.86,6.74,9.99,8.8-.43-5.17-.12-15.26,7.65-20.99Z"/><path class="cls-9" d="m49.47,54.79c-3.97-1.63-14.72-7-15.93-17.82,0,0-5.62,14.58,3.08,22.85,4.68-.49,9.13-2.25,12.86-5.03Z"/><path class="cls-9" d="m36.02,34.19s10.47,12.96,22.44,8.38c.15-.41.28-.83.41-1.25,1.21-4.07,1.37-8.2.66-12.1-3.28,2.56-13.41,9.38-23.51,4.97Z"/><path class="cls-1" d="m45.59,44.78c-5.61,5.93-14.96,6.19-20.88.58-5.93-5.61-6.19-14.96-.59-20.89,5.61-5.93,14.96-6.19,20.89-.59,5.93,5.61,6.19,14.96.58,20.89Z"/><path class="cls-2" d="m44.74,43.66c-5.31,5.62-14.17,5.86-19.78.55-5.62-5.31-5.86-14.17-.55-19.78,5.31-5.62,14.17-5.86,19.78-.55,5.62,5.31,5.86,14.17.55,19.78Z"/><path class="cls-9" d="m35.82,32.72s8.08,2.61,12.24-2.42c-.6-2.18-1.74-4.24-3.41-5.97-1,2.53-3.59,7.5-8.83,8.39Z"/><path class="cls-9" d="m34.26,31.47s5.65-5.11,4.31-10.84c-2.17-.64-4.45-.75-6.65-.33,1.71,2.35,4.01,6.65,2.34,11.16Z"/><path class="cls-9" d="m32.39,32.2s-1.49-6.98-6.69-8.97c-.45.37-.88.77-1.29,1.2-1.19,1.26-2.1,2.69-2.74,4.2,2.91-.29,7.7-.09,10.73,3.57Z"/><path class="cls-9" d="m32.09,34.18s-7.1-2.29-11.41,1.56c.29,2.36,1.18,4.65,2.65,6.64,1.05-2.58,3.64-7.34,8.76-8.2Z"/><path class="cls-9" d="m36.97,47.83c-1.51-1.74-5.36-6.92-3.31-12.4,0,0-6.23,5.63-4.07,11.69,2.36.9,4.92,1.14,7.38.71Z"/><path class="cls-9" d="m35.52,34.7s1.87,8.75,8.72,9.46c.17-.16.33-.33.5-.5,1.56-1.66,2.64-3.6,3.25-5.64-2.19.43-8.7,1.24-12.47-3.32Z"/><path class="cls-9" d="m59.95,63.39c0,1-.81,1.82-1.81,1.82h0c-1,0-1.81-.81-1.81-1.82v-21.95c0-1,.81-1.81,1.81-1.81h0c1,0,1.81.81,1.81,1.81v21.95Z"/><path class="cls-4" d="m48.09,35.75c0,7.49-6.07,13.56-13.56,13.56s-13.56-6.07-13.56-13.56,6.07-13.56,13.56-13.56,13.56,6.07,13.56,13.56Z"/><path class="cls-6" d="m46.38,32.2c0,7.49-6.07,13.56-13.56,13.56s-13.56-6.07-13.56-13.56,6.07-13.56,13.56-13.56,13.56,6.07,13.56,13.56Z"/><path class="cls-3" d="m41.97,31.38c0,5.24-4.25,9.49-9.49,9.49s-9.49-4.25-9.49-9.49,4.25-9.49,9.49-9.49,9.49,4.25,9.49,9.49Z"/><path class="cls-7" d="m41.44,25.76c0,2.3-1.86,4.17-4.16,4.17s-4.17-1.86-4.17-4.17,1.86-4.17,4.17-4.17,4.16,1.87,4.16,4.17Z"/><path class="cls-7" d="m31.64,34.7c0,1.61-1.31,2.92-2.92,2.92s-2.92-1.31-2.92-2.92,1.3-2.92,2.92-2.92,2.92,1.31,2.92,2.92Z"/></g></svg>