<?xml version="1.0" encoding="UTF-8"?><svg id="Capa_2" xmlns="http://www.w3.org/2000/svg" viewBox="0 0 122.6 122.6"><defs><style>.cls-1{fill:#231f20;opacity:.1;}.cls-1,.cls-2,.cls-3,.cls-4{stroke-width:0px;}.cls-2{opacity:.5;}.cls-2,.cls-4{fill:#fbdc45;}.cls-3{fill:#301a2e;}</style></defs><g id="halloween9"><path class="cls-2" d="m122.6,61.3c0,33.85-27.44,61.3-61.3,61.3S0,95.16,0,61.3,27.45,0,61.3,0s61.3,27.45,61.3,61.3Z"/><path class="cls-4" d="m117.17,61.3c0,30.86-25.02,55.87-55.87,55.87S5.43,92.16,5.43,61.3,30.45,5.44,61.3,5.44s55.87,25.01,55.87,55.87Z"/><path class="cls-1" d="m111.52,36.8c.13,1.57.21,3.16.21,4.77,0,30.85-25.01,55.87-55.87,55.87-22.07,0-41.14-12.8-50.22-31.37,2.42,28.62,26.4,51.1,55.65,51.1,30.85,0,55.87-25.01,55.87-55.87,0-8.79-2.04-17.1-5.65-24.5Z"/><path class="cls-3" d="m12.98,92.13c-.16.21.88.25,2.15.22-1.21-.23-2.06-.34-2.15-.22Z"/><path class="cls-3" d="m116.53,57.65l-26.84,14.12-4.58-2.16h-2.29l-2.93-2.67-7.76-5.47,4.96,1.65,2.42-1.02-1.78-3.69-7.89-3.95,3.05-2.54,2.42,3.94,4.45-3.69,9.8-8.52-1.65-2.17-7.5,3.85s-2.29.22-2.16-.54c.13-.76.76-.64.76-.64,0,0-2.67-3.05-1.65-2.67,1.02.38,3.18,2.29,3.18,2.29,0,0-2.03-4.45-1.14-3.82.89.64,3.05,1.91,3.05,1.91,0,0-3.51-3.26-4.8-4.74,1.99-4,3.66-7.34,3.66-7.34l-7.51,6.36s-3.81.25-3.94-.51c-.13-.76-4.96-7-4.96-7,0,0-2.8,4.2-2.93,4.45-.13.26-7-9.79-7.12-10.43-.13-.64-7.38-4.45-7.38-4.45,0,0-3.31,1.58-3.69,1.58s-5.98,1.98-5.98,1.98c0,0-6.11.2-6.74-.89-.64-1.09-2.29-1.09-2.29-1.09v3.66l4.07.73s6.87.89,7.12.51c.26-.38,3.31,2.8,3.56,3.18.25.38.25,6.42.25,6.42,0,0,1.78,4.39,2.8,4.39s4.2,1.65,4.32,2.16c.13.51,1.15,7.12,1.27,7.19.13.07,5.42,2.36,5.42,2.36l-5.67,3.44s-.46-.08-1.12-.2l-4.61-5.59s-12.21-3.18-11.83-2.7c.37.46-8.74-1.69-10.78-3.21,1.33,1.09,10.55,8.65,10.91,8.65.38,0,1.65,3.18,1.65,3.18,0,0-.09,2.5-.04,3.1-.79-.78-11.68-4.79-12.17-5.64-.51-.89-1.14,3.82-.51,4.45.63.64,14.25,12.08,14.5,12.78.25.7-.76,5.41-.89,6.68-.12,1.27-2.29,5.72-2.54,6.23-.26.51-1.4,3.18-1.02,3.31.38.13,9.67,4.07,15.27,0,0,0,4.96,3.69,12.47-.26l-10.05,5.5-5.73.98-.25-2.03-4.2-.26-5.47,2.29s-14.25-1.91-15.01-2.29c-.76-.38,2.29,1.78,2.67,2.29.38.51-3.94,1.02-3.94,1.02,0,0-2.28.18-4.08.22,3.69.71,10.82,2.6,10.82,2.6,0,0-7.5,2.91-7.89,3.17-.38.25-7.89,2.42-7.89,2.42l13.23-2.16-5.47,5.73s1.27.45,3.31-1.24c2.03-1.69,13.23-4.61,13.23-4.61l-11.96,11.07,1.27,2.04s14.37-12.47,14.76-12.72c.38-.26,6.11-1.78,6.62-1.78s6.36-3.18,6.36-3.18l-6.11.76s3.18-2.04,3.69-2.04,16.78-7.89,16.78-7.89l-4.95,3.56s2.67,0,3.06-.13c.38-.13-8.97,7.89-8.97,7.89l8.84,4.71s12.21-.76,12.85-1.02c.64-.25.89-4.57.89-4.57l-4.08,2.91-6.1-3.69,6.62-5.85,1.53-5.34-1.02-3.05s1.4.51,1.53.89c.13.38,4.45,1.27,4.45,1.27l2.04-4.45,3.56,1.14,2.54-2.1v-2.86l28.5-12.22-.64-3.94Zm-62.34.13l-2.33-2.83c1.24.51,2.2.92,2.2.92l11.07-.89.75-.58-2.15,4.01-9.54-.64Z"/><path class="cls-3" d="m23.57,42.14c-.1-.09-.16-.13-.16-.13.05.04.1.09.16.13Z"/></g></svg>