<?xml version="1.0" encoding="UTF-8"?><svg id="Capa_2" xmlns="http://www.w3.org/2000/svg" viewBox="0 0 120.94 118.27"><defs><style>.cls-1{opacity:.5;}.cls-1,.cls-2{fill:#fff;}.cls-1,.cls-2,.cls-3,.cls-4{stroke-width:0px;}.cls-2{opacity:.3;}.cls-3{fill:#d3c8a6;}.cls-4{fill:#8d3b44;}</style></defs><g id="halloween10"><path class="cls-4" d="m104.56,105.29c4.97-1.96,7.45-6.37,8.09-10.88,3.91-2.22,8.01-5.82,8.28-11.22.26-5.24-3.15-9.71-10.13-13.28-.97-.5-2.05-.75-3.14-.74-2.4.02-4.65.27-6.3.52-2.03-1.15-5.21-2.99-7.71-4.65-5.57-3.68-43.56-29.46-46.91-32.18-1.19-1.1-3.76-3.18-7.78-6.42-1.97-1.59-4.54-3.66-5.71-4.65-3.65-6.29-9.71-11.7-16.46-9.04-2.24.88-4.11,2.55-5.55,4.97-1.17,1.95-2.35,3.93-3.07,5.88-.68.52-1.61,1.22-2.86,2.14C.23,29.49-1.46,36.17,1.36,41.28c2.69,4.87,9.63,8.48,21.03,3.99l.36-.14c.26-.1.51-.22.75-.36,1.27.95,3.93,2.66,9.81,6.43,11.57,7.42,46.76,30,50.48,35.91,1.75,2.83,2.82,5.57,3.75,7.99,1.74,4.5,4.99,12.87,14.72,10.87.8-.16,1.57-.39,2.3-.68Z"/><path class="cls-3" d="m27.86,26.01s-6.44-12.13-10.82-4.81c-4.38,7.32-2.28,5.74-2.28,5.74,0,0-.16.37-5.43,4.26-5.27,3.89-2.81,13.21,10.88,7.67,0,0,3.56-2.46,7.29.46,3.73,2.92,56.24,34.88,62.04,44.24,5.8,9.36,4.93,17.12,11.36,15.79,6.44-1.32,4.99-9.22,4.99-9.22,0,0,17.36-6.23,1.82-14.18-3.92.03-7.53.84-7.53.84,0,0-5.97-3.25-10.26-6.09-4.3-2.84-45.54-30.77-47.7-32.8-2.16-2.02-14.02-11.29-14.36-11.89Z"/><path class="cls-2" d="m88.66,79.7s-34.91-29.54-53.2-39.07c0,0,33.91,27.02,53.2,39.07Z"/><path class="cls-1" d="m108.67,83.82c.47,1.2,1.83,1.79,3.02,1.32,1.2-.47,1.79-1.83,1.31-3.02-.47-1.2-1.82-1.79-3.02-1.32-1.2.47-1.78,1.82-1.32,3.02Z"/><path class="cls-1" d="m103.47,82.32c.34.86,1.3,1.27,2.15.94.86-.34,1.28-1.3.94-2.16-.34-.86-1.3-1.28-2.16-.94-.86.34-1.28,1.3-.94,2.16Z"/><path class="cls-1" d="m97.32,94.83c.34.86,1.3,1.27,2.16.94.85-.34,1.27-1.3.94-2.16-.34-.85-1.3-1.27-2.16-.94-.85.34-1.27,1.3-.94,2.16Z"/><path class="cls-1" d="m18.57,24.05c.34.86,1.3,1.28,2.16.94.86-.34,1.28-1.3.94-2.15-.34-.86-1.3-1.28-2.15-.94-.86.34-1.28,1.3-.94,2.16Z"/><path class="cls-4" d="m36.19,118.27c-5.35,0-9.26-3.19-11.51-7.16-4.46-.63-9.59-2.48-11.81-7.4-2.16-4.78-.62-10.19,4.56-16.07.72-.82,1.63-1.45,2.65-1.84,2.24-.86,4.42-1.45,6.05-1.82,1.47-1.82,3.75-4.69,5.47-7.14,3.83-5.47,29.74-43.38,31.85-47.13.71-1.46,2.33-4.33,4.89-8.83,1.25-2.2,2.88-5.07,3.61-6.42,1.09-7.19,4.74-14.45,12.01-14.45,2.41,0,4.76.87,6.99,2.59,1.8,1.39,3.63,2.8,5.01,4.35.83.23,1.94.54,3.44.94,6.09,1.63,10.12,7.22,9.36,13.01-.72,5.52-5.86,11.42-18.1,11.42h-.39c-.27,0-.55-.02-.82-.06-.84,1.35-2.69,3.92-6.77,9.58-8.04,11.14-32.52,45.04-33.81,51.91-.59,3.27-.58,6.21-.57,8.81.02,4.82.07,13.8-9.72,15.51-.8.14-1.61.21-2.39.21Z"/><path class="cls-3" d="m78.52,16.4s1.54-13.65,8.3-8.45c6.75,5.21,4.22,4.51,4.22,4.51,0,0,.28.28,6.62,1.97,6.33,1.69,7.46,11.26-7.32,11.12,0,0-4.22-.99-6.61,3.09-2.4,4.08-39.55,53.06-41.52,63.89-1.97,10.83,1.68,17.73-4.79,18.86-6.47,1.13-8.02-6.76-8.02-6.76,0,0-18.43.56-6.89-12.52,3.66-1.41,7.31-1.97,7.31-1.97,0,0,4.37-5.21,7.32-9.43,2.96-4.22,31.1-45.32,32.37-47.99,1.27-2.67,8.91-15.64,9.01-16.32Z"/><path class="cls-2" d="m41.6,88.63s21.66-40.28,35.19-55.84c0,0-21.66,37.57-35.19,55.84Z"/><path class="cls-1" d="m24.49,99.79c0,1.29-1.04,2.33-2.33,2.33s-2.33-1.04-2.33-2.33,1.04-2.33,2.33-2.33,2.33,1.04,2.33,2.33Z"/><path class="cls-1" d="m28.78,96.5c0,.92-.74,1.66-1.66,1.66s-1.66-.74-1.66-1.66.75-1.66,1.66-1.66,1.66.74,1.66,1.66Z"/><path class="cls-1" d="m39.09,105.88c0,.92-.74,1.66-1.66,1.66s-1.66-.74-1.66-1.66.75-1.66,1.66-1.66,1.66.74,1.66,1.66Z"/><path class="cls-1" d="m86.44,11.17c0,.92-.74,1.66-1.66,1.66s-1.66-.74-1.66-1.66.74-1.66,1.66-1.66,1.66.74,1.66,1.66Z"/></g></svg>