<?xml version="1.0" encoding="UTF-8"?><svg id="Capa_2" xmlns="http://www.w3.org/2000/svg" viewBox="0 0 111.99 121.08"><defs><style>.cls-1{fill:#f8e580;}.cls-1,.cls-2,.cls-3{stroke-width:0px;}.cls-2{fill:#282525;}.cls-3{fill:#fff;}</style></defs><g id="halloween12"><path class="cls-3" d="m111.99,120.11c.06-23.75-13.1-35.54-24.15-41.25-10.28-5.31-20.12-6.26-21.72-6.38l-7.35-3.8c-.27-.62-.44-2.81-.46-4.9,6.95-.17,10.92-3.16,13.05-5.7,2.42-2.89,3.02-5.81,3.05-5.93.09-.43-.13-.86-.51-1.06-.06-.03-.13-.06-.2-.08l-6.12-1.6c-1.27-2.13-3.03-3.79-5.24-4.93-.95-.49-1.82-.8-2.49-.99l2.55-4.93c.18-.35.13-.77-.11-1.07-.09-.1-.19-.19-.3-.25-.22-.11-.48-.14-.72-.07-9.15,2.69-12.4,12.04-13.29,15.44-1.41-.68-3.93-1.9-6-2.97-1.43-.74-2.23-1.19-2.68-1.46C44.67,21.5,11.51,3.52,7.68,1.54S3.77-.15,3.31.34c-.3.32-.35.82-.13,1.19C15.92,23,.96,37.25.31,37.85c-.24.22-.35.55-.3.88.05.3.24.57.51.71.02,0,.04.02.06.03,1.05.46,2.05.94,2.98,1.42,6.38,3.3,9.95,6.99,10.59,10.97.71,4.35-2.45,7.65-2.48,7.68-.27.27-.35.67-.22,1.03.09.23.26.42.47.53.11.06.24.1.37.11,3.04.24,5.5.83,7.31,1.77,2.01,1.04,3.2,2.46,3.63,4.35,1.17,5.15-3.81,11.84-3.86,11.91-.3.4-.25.97.12,1.31l5.8,5.33c.06.06.14.11.21.15.23.12.51.14.76.06,5.22-1.79,9.71-1.74,13.36.15,8.37,4.32,9.85,17.01,9.86,17.14.03.31.22.59.49.75,0,0,.02.01.03.02.27.14.59.15.86.02,4.57-2.16,9.41-1.95,14.4.63,5.48,2.83,9.16,7.56,9.19,7.6.09.12.2.21.33.27.27.14.59.15.88,0,9.3-4.58,18.75-1.67,25.03,1.57,5.75,2.97,9.59,6.58,9.63,6.61.07.06.14.12.22.16.26.13.56.15.83.03.36-.15.59-.5.59-.89Z"/><path class="cls-2" d="m4.02,1.03C3.46.09,44.76,19.35,38.19,48.64c1.38,1.1,10.44,5.39,10.44,5.39,0,0,2.33-12.81,12.89-15.91l-3.13,6.06s5.51.62,8.54,6.07l6.52,1.7s-2.2,11.04-16.11,10.86c0,0-.08,6.18.84,6.66s7.68,3.97,7.68,3.97c0,0,45.27,2.76,45.16,46.67,0,0-18.02-17.09-35.77-8.35,0,0-11.41-14.84-24.79-8.52,0,0-2.76-25.55-24.51-18.11l-5.8-5.33s13.53-17.91-7.78-19.59c0,0,11.44-11.6-11.39-21.64,0,0,16.36-15.09,3.04-37.54Z"/><path class="cls-1" d="m56.04,49.12c-.26.51-.89.71-1.4.45s-.71-.89-.45-1.4.89-.71,1.4-.44.71.89.45,1.39Z"/><path class="cls-1" d="m63.44,56.37c-.26.51-.89.71-1.4.45s-.71-.89-.45-1.4.89-.71,1.4-.44.71.89.45,1.39Z"/></g></svg>