<?xml version="1.0" encoding="UTF-8"?><svg id="Capa_2" xmlns="http://www.w3.org/2000/svg" xmlns:xlink="http://www.w3.org/1999/xlink" viewBox="0 0 124.9 119.53"><defs><style>.cls-1{clip-path:url(#clippath);}.cls-2{fill:none;}.cls-2,.cls-3,.cls-4,.cls-5,.cls-6{stroke-width:0px;}.cls-7{opacity:.4;}.cls-3{fill:#88a8ab;}.cls-4{fill:#fefb01;}.cls-5{fill:#e6e7e8;}.cls-6{fill:#006c83;}</style><clipPath id="clippath"><rect class="cls-2" x="53.48" y="9.28" width="50.98" height="88.61"/></clipPath></defs><g id="halloween4"><path class="cls-4" d="m71.08,1.07s28.92-7.88,46.79,19.19l-7.43,68.49s4.18-1.01,7.43-1.73l7.04,17.69s-40.91,18.97-68.09-10.82L71.08,1.07Z"/><path class="cls-3" d="m101.8,99.24S132.85,15.24,77.15,1.55c0,0-37.43-13.69-25.56,89.47l-3.65,4.57,53.87,3.65Z"/><g class="cls-7"><g class="cls-1"><path class="cls-5" d="m53.48,94.55l3.28-4.59c-5.1-49.91,1.5-68.91,7.95-76.05,3.45-3.83,7.11-4.63,9.57-4.63,2.05,0,3.41.55,3.42.55,9.33,2.57,16.33,8.12,20.81,16.49,13.83,25.82-.74,70.78-.89,71.23l-.11.34-44.02-3.35Zm11.9-80.03c-6.33,7.01-12.8,25.8-7.7,75.51l.02.17-2.54,3.55,41.7,3.17c1.32-4.19,13.85-45.88.84-70.18-4.36-8.14-11.17-13.54-20.3-16.06-.01,0-1.25-.5-3.12-.5-2.28,0-5.66.75-8.89,4.33"/></g></g><polygon class="cls-3" points="95.87 93.31 113.22 94.22 110.48 110.65 47.48 104.26 31.04 106.09 35.61 88.74 95.87 93.31"/><path class="cls-6" d="m118.69,106.69l1.83-11.87-8.22,14.61-10.05-10.96-10.04,8.22-14.61-11.87-2.74,10.05-14.61-10.96,1.83,11.87-14.15-15.06L0,113.99s97.69,16.43,118.69-7.3"/><path class="cls-4" d="m76.66,31.73c-.48-2.04-3.61-1.17-3.14.86,1.55,6.6.52,14.41.49,21.2,0,0,0,.02,0,.03v.29c0,2.09,3.25,2.09,3.25,0,0-7.21,1.05-15.34-.6-22.37Z"/><path class="cls-4" d="m70.71,53.39c-.81-2.1-1.68-3.89-3.52-5.29-.34-.25-1.91-1.23-2.64-2.14.03-.51.05-1.02.08-1.52.76-.81,1.2-1.43,1.86-2.53,2.1-3.49,2.65-9.79-.34-13-2.74-2.96-4.64,2.53-4.66,4.33-.04,3.15.05,6.45.02,9.74-.07.07-.14.14-.21.21-.53.54-.98,1.63-.76,2.38.19.63.48,1.16.82,1.66-.19,2.85-.58,5.65-1.36,8.31-.59,2.02,2.54,2.87,3.13.86.59-1.99.91-4.1,1.12-6.24,1.33,1.13,2.65,2.3,3.33,4.07.74,1.94,3.89,1.1,3.13-.86Z"/><path class="cls-4" d="m88.44,29.11c-2-2.6-4.07-1.03-5.18,1.06-1.11-.39-2.61.44-2.16,1.89.86,2.74.16,5.89-.01,8.77-.12,1.1-.21,2.2-.29,3.31-1.95-.21-2.74,2.76-.73,3.13.19.03.37.04.56.07-.08,2.15-.12,4.31-.13,6.49,0,2.09,3.25,2.09,3.25,0,0-2.15.15-4.29.29-6.42,3.14-.36,5.94-1.93,7.36-5.16,1.73-3.94-.51-9.93-2.96-13.12Zm-4.21,14.96c.04-.81.07-1.63.07-2.44,0-.03,0-.06,0-.09.3-2.92.74-5.83,1.41-8.75.69-3,1.54,1.32,2.05,2.36,2.07,4.26.18,8.04-3.54,8.92Z"/><path class="cls-4" d="m77.8,31.08c-1.85,0-3.74.06-5.53-.48-2.01-.61-2.86,2.52-.86,3.13,2.06.63,4.26.6,6.39.6,2.1,0,2.1-3.25,0-3.25Z"/><path class="cls-4" d="m76.72,52.73c-.96,0-2.07.1-2.97-.32-.8-.38-1.75-.23-2.22.58-.42.71-.22,1.85.58,2.22,1.48.7,3,.76,4.61.76,2.09,0,2.09-3.25,0-3.25Z"/></g></svg>