<?xml version="1.0" encoding="UTF-8"?><svg xmlns="http://www.w3.org/2000/svg" viewBox="0 0 121.97 84.4"><defs><style>.cls-1{opacity:.2;}.cls-2{isolation:isolate;}.cls-3{fill:#fa9435;}.cls-3,.cls-4,.cls-5,.cls-6,.cls-7,.cls-8,.cls-9{stroke-width:0px;}.cls-4{fill:#f8e580;}.cls-5{fill:#5c6b37;}.cls-6{fill:#231f20;}.cls-7{fill:#dd5118;}.cls-8{fill:#8c4810;}.cls-9{fill:#fff;mix-blend-mode:overlay;opacity:.5;}</style></defs><g class="cls-2"><g id="Capa_2"><g id="halloween15"><path class="cls-5" d="m68.03,17.54S71.28-.38,82.29,0l5.35,7.3s-13.73-1.7-15.89,12.48c0,0-4.38.48-3.72-2.25Z"/><path class="cls-3" d="m2.06,40.73s1.7-16.59,13.45-21.29c11.74-4.69,28.39-6.58,30.61-6.58s18.79,3.96,18.79,3.96c0,0,19.58,2.22,21.08,1.77,1.51-.45,39.45,3.31,35.73,34.94-3.72,31.63-33.36,26.73-33.36,26.73l-28.49,4.14-32.89-6.4S-8.82,55.41,2.06,40.73Z"/><g class="cls-1"><path class="cls-6" d="m6.89,56.23h0c-.28,0-.28-.27-.28-.43v-.08c-.7-10.47,11.23-32.99,22.29-34.13l.06.56c-4.68.49-10.31,5.41-15.07,13.18-4.13,6.74-6.69,14.13-6.74,19.28,1.26-2.35,3.16-4.24,5-6.09.61-.62,1.25-1.25,1.85-1.89l1.37-1.46-.91,1.78c-.9,1.76-1.06,3.47-1.26,5.44-.03.28-.06.56-.09.85l-.57-.06c.03-.29.06-.57.09-.85.14-1.46.28-2.86.74-4.25-.28.28-.55.56-.83.83-2.06,2.06-4.18,4.18-5.37,6.9,0,.18-.03.41-.29.41Z"/><path class="cls-6" d="m19.6,69.55l-.56-.07c.11-1,.22-2,.32-3.02,1.52-14.41,3.24-30.73,15.31-40.3l.35.44c-11.62,9.22-13.51,24.91-15,38.97,1.21-3.33,3.21-6.42,5.17-9.44.58-.9,1.19-1.83,1.75-2.74,0-.16.02-.37.27-.39.29-.01.3.26.31.42v.09s-.04.08-.04.08c-.66,2.83-.61,5.81-.56,8.7v1.08s-.55,0-.55,0l-.02-1.08c-.04-2.44-.08-4.95.3-7.39-.33.51-.66,1.03-.99,1.53-2.67,4.11-5.43,8.35-6.07,13.11Z"/><path class="cls-6" d="m37.35,74.82l-.25-1.33c-.74-3.93-.78-8.91-.82-13.73-.04-5.48-.08-10.66-1.13-13.81l.54-.18c1.08,3.23,1.12,8.45,1.16,13.98.03,4.22.06,8.56.57,12.18,1.97-9.41,2.58-20.35,3.11-30.04.08-1.54.17-3.04.25-4.52l.57.03c-.09,1.48-.17,2.98-.26,4.52-.56,10.22-1.2,21.81-3.44,31.58l-.3,1.32Z"/><path class="cls-6" d="m114.75,64.71l-.51-1.02c-1.54-3.13-3.63-6.44-5.65-9.64-3.18-5.03-6.47-10.23-7.96-15.19l-.05-.17.14-.12c.73-.64,1.19-.19,1.43.06.06.06.17.17.21.17l-.03.56c-.26,0-.44-.19-.58-.33-.21-.21-.3-.29-.52-.14,1.49,4.82,4.71,9.92,7.84,14.86,1.81,2.87,3.69,5.83,5.17,8.67,0-11.14-4.68-23.22-12.96-33.32l.44-.36c8.64,10.55,13.41,23.25,13.07,34.83l-.03,1.14Z"/><path class="cls-6" d="m98.67,76.89l-.27-1.08c-.38-1.5-.86-3.25-1.42-5.28-3.16-11.42-7.94-28.69-3.05-36.43l.23-.36.24.36c.2.3.4.61.59.94-.36-1.52-.65-3.07-.83-4.66l.56-.06c.28,2.54.86,4.97,1.55,7.35.72,1.74,1.31,3.69,1.76,5.65,1.37,4.32,2.64,8.83,2.63,13.89,0,6.2-.22,12.75-1.71,18.62l-.28,1.08Zm-4.5-42.11c-4.37,7.71.26,24.45,3.35,35.6.43,1.56.82,2.95,1.15,4.19,1.24-5.52,1.43-11.6,1.43-17.38,0-3.26-.53-6.29-1.29-9.19.17,1.6.22,3.09.14,4.38l-.56-.03c.15-2.44-.18-5.66-.89-8.84-.16-.5-.32-1-.47-1.49-.44-1.39-.89-2.79-1.31-4.22-.46-1.11-.98-2.13-1.55-3.02Z"/><path class="cls-6" d="m79.81,71.76l-.38-.95c-3.36-8.49-7.34-28.37-3.32-37.77l.3-.71.22.74c.06.18,5.62,18.74,5.09,21.6l-.55-.1c.38-2.05-3.01-14.43-4.84-20.56-3.32,9.17.11,26.97,3.26,35.61.12-.76.25-1.52.37-2.28,1.87-11.25,3.8-22.89,1.21-34.12l.55-.13c2.62,11.34.68,23.03-1.2,34.34-.18,1.11-.37,2.21-.54,3.31l-.16,1.01Z"/><path class="cls-6" d="m46.44,78.14c-3.36-10.87-.84-26.2,7.71-46.87.22-.53.45-1.13.7-1.77,1.67-4.28,3.95-10.13,7.87-11.3l.16.54c-3.65,1.08-5.97,7.03-7.5,10.96-.25.65-.48,1.25-.71,1.79-8.5,20.54-11.02,35.74-7.7,46.48l-.54.17Z"/><path class="cls-6" d="m60.25,67.42l-.53-.19c3.68-9.92,4.03-20.67,4.38-31.07.1-3.13.21-6.37.41-9.52l.56.03c-.2,3.14-.3,6.37-.41,9.5-.35,10.44-.7,21.24-4.41,31.24Z"/></g><path class="cls-8" d="m22.43,33.72v25.6l9.18,3.02,3.56-6.4,11.61,2.63-2.92,10.17s14.66-1.13,17.14-1.51c2.48-.38,5.87-5.64,5.87-5.64l10.07,1.13,3.11,8.66s12.8-1.51,14.31-2.26c1.51-.76,1.88-5.27,1.88-5.27l8.34-3.77,3.66,4.52,5.42-1.88-2.25-28.99s-9.9,12.12-16.3,14.91l3.26,3.92-8.16,3.39-1.13-7.31s-29.49-1.73-33.95-5.12l-1.84,6.78-4.82-1.66-.83-5.12s-17.67-3.77-25.2-9.79Z"/><polygon class="cls-4" points="31.61 62.34 32.92 56.15 48.46 57.44 49.14 65.35 63.86 65.35 66.86 61.59 76.93 60.83 80.03 71.38 92.42 69.61 92.42 61.96 104.21 58.2 107.42 61.96 113.64 62.72 109.19 66.1 103.83 61.96 96.23 63.85 95.47 71.38 76.93 74.76 74.76 65.35 68.03 63.65 63.84 68.74 43.85 68.74 46.3 60.2 35.61 58.95 31.61 62.34"/><polygon class="cls-7" points="64.22 39.74 72.63 30.71 76.93 43.13 64.22 39.74"/><path class="cls-8" d="m52.87,19.79l2.25,6.02-3.3,1.51,1.45,4.9h5.08l.7,5.46-14.72-3.96s-1.31-6.4,8.53-13.93Z"/><path class="cls-4" d="m53.13,25.81l-3.29,1.51,1.45,4.9h1.99l-1.45-4.9,3.3-1.51-2.25-6.02c-.54.42-1.05.83-1.53,1.24l1.79,4.79Z"/><polygon class="cls-4" points="59.06 37.68 58.36 32.21 56.37 32.21 57 37.12 59.06 37.68"/><polygon class="cls-4" points="71.76 31.64 74.19 42.41 77.59 43.13 72.63 30.71 71.76 31.64"/><path class="cls-8" d="m86.81,41.25l-1.51-4.33,4.89-1.98-1.32-4.24-5.27,1.51.94-6.21s11.67-1.32,17.51,6.21c0,0,0,6.78-15.25,9.04Z"/><path class="cls-4" d="m84.55,26.01l-.34,2.26c2.74.41,14.05.66,15.22,5.46,0,0-.32,5.34-13,6.43l.38,1.1c15.25-2.26,15.25-9.04,15.25-9.04-5.83-7.53-17.51-6.21-17.51-6.21Z"/><path class="cls-9" d="m63.85,16.57c-3.68-.87-15.86-3.71-17.74-3.71-2.22,0-18.87,1.88-30.61,6.58C3.76,24.13,2.06,40.73,2.06,40.73c-2.7,3.65-2.52,7.78-.73,11.94.31-.63.64-1.29.99-2,0,0,7.1-12.14,6.4-12.99-.7-.85,10.2-19.41,33.18-20.14l4.24-2.74,18.07,2.74-.37-.97Z"/><path class="cls-4" d="m108.64,36.92s1.54,19.07,5.02,25.04l-2.26-28.24s-1.46-.94-2.76,3.2Z"/></g></g></g></svg>