<?xml version="1.0" encoding="UTF-8"?><svg id="Capa_2" xmlns="http://www.w3.org/2000/svg" viewBox="0 0 108.84 122.39"><defs><style>.cls-1{opacity:.2;}.cls-1,.cls-2,.cls-3,.cls-4,.cls-5,.cls-6,.cls-7,.cls-8,.cls-9{stroke-width:0px;}.cls-1,.cls-2,.cls-6{fill:#231f20;}.cls-2,.cls-10{opacity:.5;}.cls-4{fill:#fff;opacity:.3;}.cls-5{fill:#754c29;}.cls-7{fill:#d3c8a6;}.cls-8{fill:#8b5e3c;}.cls-9{fill:#e8685f;}</style></defs><g id="halloween14"><path class="cls-5" d="m98.91,59.47c4.5-4.67,7.38-8.58,8.81-11.93,1.97-4.63.96-7.79-.24-9.62-2.13-3.26-6.33-4.87-12.85-4.94h-.09c-3.47,0-6.6,1.88-9.61,3.69-1.56.94-3.91,2.35-4.88,2.38-.31-.1-.52-.19-.67-.27.2-1.02,1.23-3.04,1.87-4.31,1.29-2.53,2.62-5.15,2.96-7.97.27-2.27.22-4.46-.12-6.56-.49.09-1.01.15-1.56.15-2.19,0-3.86-.78-5.07-1.97-.99.48-2.08.78-3.24.78h-.59c-4.12,0-7.56-3.44-7.56-7.56,0-.09.02-.18.03-.28-1.6-.21-3.14-.89-4.34-2.09-2.3-2.31-2.75-5.83-1.41-8.65-1.6-.2-3.23-.35-4.89-.35-9.24,0-17.38,3.22-22.34,8.85-4.08,4.63-5.78,10.62-4.94,17.33.42,3.32,2.14,6.31,3.81,9.21,3.69,6.42,3.25,7.03.82,8.59-.75.48-1.56.7-2.63.7-1.77,0-3.9-.6-6.16-1.23-2.76-.77-5.62-1.57-8.67-1.57-4.86,0-8.89,2.14-11.98,6.35C.33,52.33-.65,56.25.42,59.86c1.95,6.55,9.79,9.49,17.36,12.33,4.4,1.65,11.76,4.41,11.97,6.73.39,4.16-9.58,7.88-13.43,8.59-.82.15-1.59.53-2.2,1.09-7.19,6.58-7.01,12.3-5.59,15.94,2.94,7.56,13.9,11.52,23.2,11.52h0c6.95,0,12.31-2.1,15.1-5.91,1.79-2.45,4.41-3.7,7.77-3.7,3.04,0,5.68,1.03,6.65,1.63,2.71,5.06,13.77,14.31,23.83,14.31,5.46,0,10.25-2.52,13.86-7.28,3.61-4.77,4.92-8.95,4.01-12.77-1.31-5.49-6.7-8.11-11.04-10.21-2.22-1.08-4.98-2.42-5.75-3.58-6.01-9.08,0-16.24,9.84-26.13,1-1,1.97-1.98,2.9-2.95Z"/><path class="cls-8" d="m103.62,41.33c1.93-4.54.59-8.25-9.03-8.35-4.88-.05-11.3,7.31-15.8,5.89-8.99-2.83.24-11.11.99-17.35.08-.65.09-1.26.1-1.88-.95-.34-1.76-.85-2.42-1.5-.99.49-2.08.78-3.24.78h-.59c-4.12,0-7.56-3.44-7.56-7.56,0-.09.02-.18.03-.28-1.6-.21-3.14-.89-4.34-2.09-2.3-2.3-2.75-5.82-1.41-8.63-13.91-2.04-29.78,4.65-27.73,20.79.93,7.36,12.46,15.8,2.6,22.12-8.66,5.55-20.1-7.98-28.25,3.12-12.48,17,26.14,15.58,27.26,27.65.82,8.93-14.65,12.94-17.07,13.38-18.03,16.51,18.92,25.43,26.1,15.62,7.17-9.82,21.38-4.01,21.82-1.79.45,2.23,19.19,21.42,30.34,6.69,11.16-14.72-8.47-14.67-12.94-21.42-9.42-14.24,4.3-25.33,13.25-34.63,3.07-3.18,6.45-7.12,7.92-10.58Z"/><path class="cls-2" d="m59.17,53.94c0,2.4-1.95,4.35-4.35,4.35s-4.35-1.95-4.35-4.35,1.95-4.35,4.35-4.35,4.35,1.95,4.35,4.35Z"/><path class="cls-9" d="m58.71,52.88c0,2.4-1.95,4.35-4.35,4.35s-4.35-1.95-4.35-4.35,1.95-4.35,4.35-4.35,4.35,1.95,4.35,4.35Z"/><path class="cls-1" d="m57.64,50.02c.03.22.06.44.06.67,0,2.4-1.95,4.35-4.35,4.35-1.31,0-2.48-.58-3.28-1.5.32,2.08,2.12,3.68,4.29,3.68,2.4,0,4.35-1.95,4.35-4.35,0-1.09-.41-2.09-1.07-2.85Z"/><path class="cls-4" d="m54.79,51.23c0,.91-.74,1.64-1.64,1.64s-1.64-.73-1.64-1.64.74-1.64,1.64-1.64,1.64.73,1.64,1.64Z"/><circle class="cls-2" cx="54.82" cy="65.82" r="4.35"/><path class="cls-9" d="m58.71,64.75c0,2.4-1.95,4.35-4.35,4.35s-4.35-1.95-4.35-4.35,1.95-4.35,4.35-4.35,4.35,1.95,4.35,4.35Z"/><path class="cls-1" d="m57.64,61.9c.03.22.06.44.06.67,0,2.4-1.95,4.35-4.35,4.35-1.31,0-2.48-.58-3.28-1.5.32,2.08,2.12,3.68,4.29,3.68,2.4,0,4.35-1.95,4.35-4.35,0-1.09-.41-2.09-1.07-2.85Z"/><path class="cls-4" d="m54.79,63.11c0,.91-.74,1.64-1.64,1.64s-1.64-.73-1.64-1.64.74-1.64,1.64-1.64,1.64.73,1.64,1.64Z"/><path class="cls-2" d="m59.17,77.5c0,2.4-1.95,4.35-4.35,4.35s-4.35-1.95-4.35-4.35,1.95-4.35,4.35-4.35,4.35,1.95,4.35,4.35Z"/><path class="cls-9" d="m58.71,76.43c0,2.4-1.95,4.35-4.35,4.35s-4.35-1.95-4.35-4.35,1.95-4.35,4.35-4.35,4.35,1.95,4.35,4.35Z"/><path class="cls-1" d="m57.64,73.58c.03.22.06.44.06.67,0,2.4-1.95,4.35-4.35,4.35-1.31,0-2.48-.58-3.28-1.5.32,2.08,2.12,3.68,4.29,3.68,2.4,0,4.35-1.95,4.35-4.35,0-1.09-.41-2.09-1.07-2.85Z"/><path class="cls-4" d="m54.79,74.79c0,.91-.74,1.64-1.64,1.64s-1.64-.73-1.64-1.64.74-1.64,1.64-1.64,1.64.73,1.64,1.64Z"/><path class="cls-2" d="m25.15,49.64c.61.02,1.17-.26,1.4-.93,1.04-1.27-.01-3.11-1.81-2.85-.09,0-.17.02-.26.04-.35.05-.74.34-.99.68-1.83,1.12-3.58,1.87-3.02,4.67.07.35.73,5.28,1.38,5.27-1.27.02-2.45-.03-3.67.4-4.35,1.53-.72,9.97,3.35,9.34,2.27-.36,1.3-3.8-.95-3.44.62-.1-.41-1.38-.42-1.55-.05-.35-.1-.7-.16-1.05.13-.02.3-.07.52-.14,1.66-.1,2.8.15,4.1-1.02,1.18-1.06.99-2.79.53-4.11-.42-1.22-.78-2.3-1.04-3.6-.22-1.13.32-1.39,1.03-1.71Z"/><path class="cls-2" d="m39.49,102.6c-.42-4.01-4.84-3.58-7.77-2.54-4.84,1.72-4.2-2.43-6.14-4.38-2.1-2.09-5.36.39-7.44-2.08-1.48-1.76-3.99.77-2.52,2.52,1.52,1.81,3.43,2.22,5.72,2.31.53-.03,1.05-.05,1.57-.07.29.85.59,1.5,1.05,2.31,1.04,1.82,2.66,3.5,4.95,3.44.68-.02,7.05-1.1,7-1.51.24,2.26,3.82,2.29,3.57,0Z"/><path class="cls-2" d="m90.06,96.95c-1.54.12-3.22.49-4.47,1.43-1.39,1.03-1.7,3.2-1.78,4.81-.11,2.13-3.24,2.02-4.71,2.26-2.42.39-2.26,3.43-2.13,5.18.17,2.28,3.74,2.3,3.57,0-.15-2.03.92-1.91,2.54-2.16,1.23-.19,2.15-1.09,2.99-1.95.9-.92,1.21-2.1,1.32-3.33.03-.37.06-1.77.35-1.98.59-.44,1.61-.64,2.33-.69,2.28-.18,2.29-3.75,0-3.57Z"/><path class="cls-2" d="m99.46,50.61c-1.65-.3-1.47-.91-1.13-2.56.17-.84.25-1.72.34-2.57.18-1.67.11-3.8-1.06-5.14-1.53-1.74-3.69-1.43-5.78-1.16-.34.04-4.36.22-4.42.6.18-1.11.42-1.93-.26-2.92-1.29-1.89-4.39-.1-3.08,1.8.03.05-.12,1.96-.05,2.27.19.89,1.28,1.76,2.14,1.94,1.45.32,8.5-.96,8.88.15.71,2.08-.42,4.87-.51,6.98-.09,2.19.78,3.12,2.3,3.65.46.77,1.42,1.3,2.46.82.63-.29.95-.6,1.23-1.23.44-.96.17-2.4-1.07-2.62Z"/><path class="cls-2" d="m63.96,12.71c-.48-.48-1.12-.6-1.71-.44-.59-.16-1.22-.04-1.71.44-.65.65-.73,1.88,0,2.52,1.08.95,2.34.95,3.42,0,.73-.64.65-1.87,0-2.52Z"/><path class="cls-2" d="m46.93,12.48c-2.3,0-2.3,3.57,0,3.57s2.3-3.57,0-3.57Z"/><path class="cls-7" d="m98.36,51.86c-.59-1.6-1.2-2.29-2.79-2.93-.23-.09-2.29-.32-2.29-.02-.01-1.05,1.51-2.51,2.03-3.47,1.62-2.97-.88-5.22-3.61-5.51-1.61-.17-3.42.34-4.99.64-1.68.32-.92.42-.62-.87.2-.86.41-1.65.39-2.54-.06-2.3-3.63-2.3-3.57,0,.04,1.93-1.78,5.16.58,6.54,2.25,1.33,5.06-.01,7.49-.21,1.94-.16-.28,2.27-.71,2.95-.61.93-.8,2.68-.51,3.74.31,1.11,1.27,1.84,2.34,2.13.67.19,1.43.07,2.1.02,1.4-.1-.88,2.89-1.37,3.04-2.19.68-1.26,4.13.95,3.44,2.29-.71,5.54-4.28,4.55-6.96Z"/><path class="cls-7" d="m47.13,11.23s-.01,0-.02-.01c0,0,.01,0,.02,0-.01,0-.02,0-.03-.01-.07-.06-.14-.12-.22-.18-.33-.25-.74-.28-1.14-.34-.97-.12-1.79.91-1.79,1.78,0,.76.41,1.27.99,1.55,0,0,0,0,.01.01,0,0-.01,0-.02,0,.02,0,.02,0,.03.01.07.06.14.12.22.18.33.25.74.28,1.14.34.97.12,1.79-.91,1.79-1.78,0-.75-.41-1.26-.99-1.55Z"/><path class="cls-7" d="m61.8,9.8c-2.3,0-2.3,3.57,0,3.57s2.3-3.57,0-3.57Z"/><path class="cls-7" d="m22.07,46.92c2.18.74,3.11-2.71.95-3.44-2.84-.96-5.07,1.14-6.06,3.63-.46,1.14-.1,2.49.52,3.47.39.62,1.02,1.13,1.54,1.63,1.82,1.77-.45,2.24-1.89,2.17-3.07-.13-3.64,2.87-3.87,5.19-.32,3.28,1.78,4.8,4.83,4.97,2.3.13,2.29-3.44,0-3.57-1.47-.08-1.31-.82-1.19-2.08.12-1.26,2.27-.84,2.97-.89,1.07-.07,2.45-.82,3.03-1.74.8-1.27.87-2.28.64-3.73-.09-.53-.49-1.1-.82-1.52-.35-.48-.74-.92-1.18-1.33-1.21-.74-1.03-1.66.54-2.76Z"/><path class="cls-7" d="m30.18,98.96c-1.22.87-1.27-2.39-1.36-2.83-.19-.88-1.01-1.75-1.76-2.19-.96-.56-2.09-.63-3.17-.66-1.41-.04-4.42.91-4.32-1.08.12-2.3-3.45-2.29-3.57,0-.11,2.15.4,3.45,2.45,4.34,1.89.82,7.13-.85,7.05,1.94-.07,2.38,1.02,3.74,3.26,4.34.71.19,1.7-.02,2.34-.33.61-.3,5.32-3.72,5.43-1.66.13,2.29,3.69,2.3,3.57,0-.36-6.63-6.14-4.54-9.91-1.86Z"/><path class="cls-7" d="m88.1,93.45c-1.15.36-2.07.26-3.17.8-1.26.62-2.15,2.1-2.91,3.21-.68,1.01-.65,2.33-.04,3.37.34.58.95.81.93,1.57-.04,2.35-2.41.78-3.08.57-5.35-1.68-6.97,5.6-4.12,8.93,1.5,1.75,4.01-.79,2.53-2.52-.68-.79-.31-2.1-.09-2.96.07-.31,2.5.77,2.81.89,1.62.59,3.7-.83,4.71-1.95.91-1.02,1.09-3.32.57-4.54-.4-.95-1.24-1.4-.59-2.36.92-1.36,2.02-1.13,3.39-1.56,2.19-.68,1.26-4.13-.95-3.44Z"/><path class="cls-3" d="m40.69,10.8l8.06,6.03c.68.51,1.84.13,2.21-.58.45-.85.15-1.67-.58-2.21l-8.06-6.03c-.68-.51-1.84-.13-2.21.58-.45.85-.15,1.67.58,2.21h0Z"/><path class="cls-3" d="m43.71,17.42c.45-.65.91-1.28,1.38-1.91.13-.17.25-.33.38-.5.15-.2-.15.19,0,0,.06-.07.11-.15.17-.22.26-.33.52-.65.78-.97,1.01-1.23,2.08-2.43,3.18-3.58.59-.61.65-1.69,0-2.29s-1.66-.65-2.29,0c-2.34,2.44-4.48,5.07-6.41,7.84-.48.7-.15,1.83.58,2.21.83.44,1.7.16,2.21-.58h0Z"/><path class="cls-3" d="m55.42,10.31c1.28.87,2.66,1.56,4.02,2.3s2.82,1.53,4.23,2.29c.74.4,1.8.21,2.21-.58s.21-1.78-.58-2.21c-1.41-.76-2.82-1.53-4.23-2.29s-2.74-1.43-4.02-2.3c-.7-.48-1.83-.16-2.21.58-.43.82-.17,1.71.58,2.21h0Z"/><path class="cls-3" d="m60.01,15.93l1.01-1.53c.3-.45.58-.91.91-1.33l-.25.33c.18-.23.38-.45.61-.63l-.33.25c.15-.12.32-.21.49-.29l-.39.16c.05-.02.11-.04.16-.06.4-.13.75-.38.97-.74.2-.35.29-.86.16-1.25s-.37-.77-.74-.97-.83-.3-1.25-.16c-.61.19-1.13.51-1.59.96-.36.35-.66.77-.94,1.18-.55.81-1.08,1.63-1.63,2.45-.22.34-.27.87-.16,1.25s.39.78.74.97c.81.43,1.71.17,2.21-.58h0Z"/><g class="cls-10"><path class="cls-6" d="m48.52,33.24c-1.08-.68-1.97-1.74-2.19-2.99s.36-2.68,1.52-3.2c1.52-.68,3.23.31,4.68,1.14,1.69.96,3.69,1.76,5.54,1.15,2.71-.88,4-4.41,6.78-5,2.03-.43,4.19,1.12,4.65,3.15s-.66,4.23-2.46,5.27c-2.95,1.71-7.07.53-9.77,2.61-.5.39-.94.88-1.52,1.15-1.26.6-2.75-.02-3.93-.76-1.26-.8-2.43-1.74-3.47-2.81"/></g><path class="cls-7" d="m47.63,31.13c-.84-.57-2.43-2.76-.7-3.35.76-.26,1.76.37,2.39.71.88.48,1.73.96,2.67,1.34,1.8.72,3.8.89,5.59.05,1.31-.62,2.31-1.68,3.29-2.71.81-.85,1.87-2.13,3.19-1.98s2.36,1.54,2.2,2.88c-.45,3.69-5.21,3.34-7.88,3.78-.92.15-1.79.41-2.63.81-.48.23-.91.52-1.33.86-.35.28-.71.73-1.15.87-.89.28-1.98-.5-2.67-.96-1.02-.67-1.94-1.47-2.8-2.34-1.47-1.48-3.76.81-2.29,2.29,1.77,1.78,4.1,3.83,6.67,4.22,1.21.18,2.33-.08,3.32-.8,1.05-.76,1.77-1.41,3.07-1.7,2.19-.49,4.48-.32,6.59-1.18s3.84-2.77,4.24-5.1c.81-4.62-4.15-8.56-8.36-6.07-1.68,1-2.69,2.72-4.25,3.85-2.13,1.53-4.42-.21-6.37-1.18-2.52-1.26-5.72-1.33-7.03,1.63-1.2,2.7.36,5.36,2.61,6.88,1.73,1.17,3.35-1.64,1.63-2.8h0Z"/></g></svg>