<?xml version="1.0" encoding="UTF-8"?><svg id="Capa_2" xmlns="http://www.w3.org/2000/svg" viewBox="0 0 63.73 121.3"><defs><style>.cls-1{fill:#231f20;opacity:.2;}.cls-1,.cls-2,.cls-3,.cls-4,.cls-5,.cls-6{stroke-width:0px;}.cls-2{fill:#f8f0cc;}.cls-3{fill:#545337;}.cls-4{fill:#6e4566;}.cls-5{fill:#cecf00;}.cls-6{fill:#ffe;}</style></defs><g id="halloween7"><path class="cls-3" d="m35.94,113.91s-.85.05-1.01,1.81l1.01,1.76h3.62l9.42,3.83h2.24l1.76-.8,3.35-2.9-.8-3.7-12.94-3.14s-4.85-.59-6.66,3.14Z"/><path class="cls-5" d="m51.91,70.46s-2.38,28.96-9.2,43.45h-4.55l.81-40.04,12.95-3.41Z"/><path class="cls-5" d="m44.17,110.42l11.36,2.42v2.56l-1.49,1.06-2.13-1.49-2.06,1.49,3.76,2.13-1.7,1.92-4.05-2.13-3.69-.64-5.21-2.28h-3.03v-2.62l3.03-4.47s4.71-.16,5.21,2.05Z"/><polyline class="cls-3" points="52.65 116.02 51.91 117.63 43.84 119.21 42.1 116.83 45.73 115.08 51.91 116.02 51.91 112.07 53.93 112.07"/><path class="cls-1" d="m38.25,109.42h0c9.55-9.48,6.78-37.15,6.78-37.15h0l-6.07,1.59-.72,35.56Z"/><path class="cls-1" d="m51.37,70.6l-12.4,3.26-.32,15.61c.97,1.27,2.29,1.28,4.06-1.23,0,0,5.46,7.5,5.3-5.19,0,0,.39,4.02,1.04,8.45,1.49-8.12,2.33-15.6,2.67-19.05l-.35-1.85Z"/><path class="cls-3" d="m33.02,113.91s.85.05,1.01,1.81l-1.01,1.76h-3.62l-9.42,3.83h-2.23l-1.76-.8-3.35-2.9.8-3.7,12.94-3.14s4.85-.59,6.66,3.14Z"/><path class="cls-5" d="m17.04,70.46s2.38,28.96,9.19,43.45h4.56l-.81-40.04-12.95-3.41Z"/><path class="cls-5" d="m24.78,110.42l-11.36,2.42v2.56l1.49,1.06,2.13-1.49,2.06,1.49-3.76,2.13,1.7,1.92,4.05-2.13,3.69-.64,5.21-2.28h3.03v-2.62l-3.03-4.47s-4.71-.16-5.21,2.05Z"/><polyline class="cls-3" points="16.3 116.02 17.04 117.63 25.11 119.21 26.85 116.83 23.22 115.08 17.04 116.02 17.04 112.07 15.02 112.07"/><path class="cls-1" d="m30.7,109.42h0c-9.55-9.48-6.79-37.15-6.79-37.15h0l6.07,1.59.71,35.56Z"/><path class="cls-1" d="m17.59,70.6l12.4,3.26.31,15.61c-.97,1.27-2.29,1.28-4.07-1.23,0,0-5.45,7.5-5.3-5.19,0,0-.39,4.02-1.04,8.45-1.49-8.12-2.33-15.6-2.67-19.05l.36-1.85Z"/><path class="cls-6" d="m5.32,83.64S-14.4,6.67,22.09.32c36.5-6.35,41.64,83.31,41.64,83.31,0,0-.52,9.71-6.19,0-5.67-9.71-1.43,20.17-6.74.75-5.31-19.43-3.16,13.08-7.6,1.49-4.44-11.58-2.48,10.09-6.3,2.24-3.81-7.85-2.83,16.05-6.69,2.98-3.85-13.07-8.11,5.99-7.75-3.36.36-9.34-3.54,9.34-4.96,0-1.42-9.34-5.14,8.6-5.76,0-.62-8.59-4.35,11.96-3.55-1.12.8-13.08-3.37,5.98-2.88-2.99Z"/><path class="cls-2" d="m43.2,85.88c4.44,11.58,2.3-20.92,7.6-1.49,5.31,19.42,1.07-10.46,6.74-.75,5.67,9.71,6.19,0,6.19,0,0,0-5.11-89.05-41.28-83.36,5.02,19.76,19.79,71.06,16.57,88.86,1.1-2.72.99-11.59,4.18-3.26Z"/><path class="cls-4" d="m16.59,29.05c.31,1.81-.23,3.41-1.19,3.58-.97.17-2.01-1.16-2.32-2.97-.31-1.81.22-3.41,1.19-3.58.97-.17,2.01,1.16,2.32,2.97Z"/><path class="cls-4" d="m42.58,25.37c.38,1.8-.09,3.42-1.05,3.62-.96.2-2.05-1.09-2.43-2.88-.38-1.8.1-3.42,1.06-3.62.96-.2,2.05,1.09,2.43,2.88Z"/></g></svg>