<?xml version="1.0" encoding="UTF-8"?><svg id="Capa_2" xmlns="http://www.w3.org/2000/svg" viewBox="0 0 110.93 113.42"><defs><style>.cls-1{fill:#f8981d;}.cls-1,.cls-2,.cls-3,.cls-4{stroke-width:0px;}.cls-2{fill:#d23c30;}.cls-3{fill:#99f;}.cls-4{fill:#686fa8;}</style></defs><g id="halloween18"><path class="cls-1" d="m9.19,113.42c-17.73-26.78-4.23-38.28-4.85-67.1,5.69,4,7.26,1.68,10.02,9.59-.11-15.43,11.79-25.98,10.75-41.19,11.21,10.91,18.03,37.39,14.71,52.77,1.46-3.14,3.76-5.3,5.11-8.59,1.78,13.65,7.02,59.17-20.69,50.16.18.09,1.53,2.23,3.25,1.9.46-.02.91-.02,1.37-.02-8.58,1.97-16.74,2.64-22.16-3.32"/><path class="cls-2" d="m19.15,102.63c-4.85-5.23-7.14-11.93-6.5-19.03,1.48,1.07,2.93,2.75,4.69,3.8-1.53-12.39,4.12-21.12,6.78-32.2.01-.61,0-.61-.02,0,.59,5.44,3.62,10.04,5.02,14.35.46-1.01,1.81-4.21,2.49-5.2-.02-.64-.03-.64-.02-.02.64,13.88,3.94,31.79-10.85,39.21-.38-2.14-1.76-2.31-3.26-3.4"/><path class="cls-1" d="m37.41,18.8c-2.2-7.29-2.64-13,2.53-18.8,2.08,7.17.85,14.02-2.53,18.8"/><path class="cls-1" d="m9.19,40.38c-.32-1.08-2.85-5.99-3.24-9.02,6.77,4.61,2.49,7,1.58,12.34"/><path class="cls-3" d="m67.48,108.69c-9.02-6.95-14.84-20.08-10.6-31.46,7.55-20.27,12.18-20.8,12.18-20.8v4s5.12-12.27,12.67-17.6c7.55-5.34,5.6-10.4,5.6-10.4,0,0,10.23,17.07,9.74,25.07-.48,8,3.41-4,3.41-4,0,0,2.19,10.94,5.12,19.74l1.7-3.87s.49,6.8.97,9.74c.49,2.93,4.39,13.34,1.71,22.68-2.97,10.36-28.01,13.5-35.86,10.64-2.33-.85-4.58-2.12-6.66-3.72Z"/><path class="cls-3" d="m95.06,36.95c.49-.26-3.65-8.54,0-13.34,3.65-4.8,3.17-12.54,3.17-12.54,0,0,2.24,11.47.02,17.07-2.21,5.6-3.19,8.8-3.19,8.8Z"/><path class="cls-4" d="m73.29,102.19c-3.62-2.79-5.94-8.05-4.25-12.61,3.03-8.12,4.88-8.34,4.88-8.34v1.6s2.05-4.92,5.07-7.05c3.03-2.14,2.25-4.17,2.25-4.17,0,0,4.1,6.84,3.9,10.04-.19,3.21,1.37-1.6,1.37-1.6,0,0,.88,4.38,2.05,7.91l.68-1.55s.2,2.73.39,3.9c.19,1.18,1.76,5.35.68,9.08-1.19,4.15-11.22,5.41-14.37,4.26-.94-.34-1.83-.85-2.67-1.49Z"/></g></svg>