<?xml version="1.0" encoding="UTF-8"?><svg id="Capa_2" xmlns="http://www.w3.org/2000/svg" xmlns:xlink="http://www.w3.org/1999/xlink" viewBox="0 0 125.29 98.97"><defs><style>.cls-1{clip-path:url(#clippath);}.cls-2{fill:none;}.cls-2,.cls-3,.cls-4,.cls-5,.cls-6,.cls-7{stroke-width:0px;}.cls-8{opacity:.3;}.cls-3{fill:#231f20;}.cls-4{fill:#bcbec0;}.cls-5{fill:#f1f2f2;}.cls-6{fill:#eaeaea;}.cls-7{fill:#002c37;}</style><clipPath id="clippath"><rect class="cls-2" y="24.78" width="86.91" height="74.19"/></clipPath></defs><g id="halloween2"><rect class="cls-5" x="1.08" y="82.01" width="6.56" height="6.7" transform="translate(-75.97 56.16) rotate(-67.09)"/><rect class="cls-4" x="4.5" y="79.74" width="1.64" height="6.7" transform="translate(-73.28 55.63) rotate(-67.08)"/><rect class="cls-5" x="8.4" y="85.11" width="6.56" height="6.7" transform="translate(-74.34 64.77) rotate(-67.08)"/><rect class="cls-4" x="11.82" y="82.84" width="1.64" height="6.7" transform="translate(-71.66 64.26) rotate(-67.07)"/><rect class="cls-5" x="15.72" y="88.2" width="6.57" height="6.7" transform="translate(-72.73 73.42) rotate(-67.09)"/><rect class="cls-4" x="19.14" y="85.93" width="1.64" height="6.71" transform="translate(-70.04 72.87) rotate(-67.06)"/><rect class="cls-5" x="23.04" y="91.29" width="6.56" height="6.7" transform="translate(-71.1 82.02) rotate(-67.07)"/><rect class="cls-4" x="26.46" y="89.03" width="1.64" height="6.7" transform="translate(-68.43 81.52) rotate(-67.08)"/><path class="cls-4" d="m32.98,94.52s11.45,11.31,30.41-3.49c18.96-14.81,14.26-27.56,14.26-27.56,0,0-48.9-7.15-44.67,31.05"/><path class="cls-5" d="m38.99,24.8s-14.28-1.1-23.55,17.16L.25,80.87l32.73,13.65s2.8-9.6,11.15-10.39c8.35-.78,19.77,12.4,36.23-5.5,16.46-17.9-3.29-40.46-3.29-40.46l-38.08-13.36Z"/><path class="cls-4" d="m26.4,44.49c2.65,5.34.47,11.83-4.87,14.48-5.35,2.65-11.83.47-14.48-4.87-2.65-5.35-.47-11.83,4.88-14.48,5.35-2.65,11.83-.47,14.48,4.88"/><path class="cls-4" d="m58,55.85c2.65,5.35.47,11.83-4.88,14.48-5.34,2.65-11.83.47-14.48-4.88-2.65-5.35-.47-11.83,4.88-14.48,5.34-2.65,11.83-.47,14.48,4.87"/><path class="cls-7" d="m23.43,45.96c1.84,3.7.33,8.2-3.38,10.03-3.7,1.84-8.2.32-10.03-3.38-1.84-3.7-.33-8.19,3.38-10.03,3.7-1.84,8.19-.32,10.03,3.38"/><path class="cls-7" d="m54.74,57.15c1.84,3.71.33,8.2-3.38,10.03-3.7,1.84-8.2.33-10.03-3.38-1.84-3.7-.33-8.19,3.38-10.03,3.7-1.84,8.2-.32,10.03,3.38"/><path class="cls-6" d="m77.08,38.16l-3.41-1.2s10.76,14.47.89,30.83c-9.86,16.36-26.6,15.29-37.37,10.59-9.54-4.16-15.47,7.09-10.22,13.63l6.01,2.5s2.8-9.6,11.15-10.39c8.35-.78,19.77,12.4,36.24-5.5,16.46-17.9-3.29-40.46-3.29-40.46"/><polygon class="cls-7" points="14.35 70.52 30.67 76.57 27.74 60.82 14.35 70.52"/><g class="cls-8"><g class="cls-1"><rect class="cls-3" x="1.08" y="82.01" width="6.56" height="6.7" transform="translate(-75.97 56.16) rotate(-67.09)"/><rect class="cls-3" x="4.5" y="79.74" width="1.64" height="6.7" transform="translate(-73.28 55.63) rotate(-67.08)"/><rect class="cls-3" x="8.4" y="85.11" width="6.56" height="6.7" transform="translate(-74.34 64.77) rotate(-67.08)"/><rect class="cls-3" x="11.82" y="82.84" width="1.64" height="6.7" transform="translate(-71.66 64.26) rotate(-67.07)"/><rect class="cls-3" x="15.72" y="88.2" width="6.57" height="6.7" transform="translate(-72.73 73.42) rotate(-67.09)"/><rect class="cls-3" x="19.14" y="85.93" width="1.64" height="6.71" transform="translate(-70.04 72.87) rotate(-67.06)"/><rect class="cls-3" x="23.04" y="91.29" width="6.56" height="6.7" transform="translate(-71.1 82.02) rotate(-67.07)"/><rect class="cls-3" x="26.46" y="89.03" width="1.64" height="6.7" transform="translate(-68.43 81.52) rotate(-67.08)"/><path class="cls-3" d="m32.98,94.52s11.45,11.31,30.41-3.49c18.96-14.81,14.26-27.56,14.26-27.56,0,0-48.9-7.15-44.67,31.05"/><path class="cls-3" d="m38.99,24.8s-14.28-1.1-23.55,17.16L.25,80.87l32.73,13.65s2.8-9.6,11.15-10.39c8.35-.78,19.77,12.4,36.23-5.5,16.46-17.9-3.29-40.46-3.29-40.46l-38.08-13.36Z"/><path class="cls-3" d="m26.4,44.49c2.65,5.34.47,11.83-4.87,14.48-5.35,2.65-11.83.47-14.48-4.87-2.65-5.35-.47-11.83,4.88-14.48,5.35-2.65,11.83-.47,14.48,4.88"/><path class="cls-3" d="m58,55.85c2.65,5.35.47,11.83-4.88,14.48-5.34,2.65-11.83.47-14.48-4.88-2.65-5.35-.47-11.83,4.88-14.48,5.34-2.65,11.83-.47,14.48,4.87"/><path class="cls-3" d="m23.43,45.96c1.84,3.7.33,8.2-3.38,10.03-3.7,1.84-8.2.32-10.03-3.38-1.84-3.7-.33-8.19,3.38-10.03,3.7-1.84,8.19-.32,10.03,3.38"/><path class="cls-3" d="m54.74,57.15c1.84,3.71.33,8.2-3.38,10.03-3.7,1.84-8.2.33-10.03-3.38-1.84-3.7-.33-8.19,3.38-10.03,3.7-1.84,8.2-.32,10.03,3.38"/><path class="cls-3" d="m77.08,38.16l-3.41-1.2s10.76,14.47.89,30.83c-9.86,16.36-26.6,15.29-37.37,10.59-9.54-4.16-15.47,7.09-10.22,13.63l6.01,2.5s2.8-9.6,11.15-10.39c8.35-.78,19.77,12.4,36.24-5.5,16.46-17.9-3.29-40.46-3.29-40.46"/><polygon class="cls-3" points="14.35 70.52 30.67 76.57 27.74 60.82 14.35 70.52"/></g></g><rect class="cls-5" x="108.37" y="39.27" width="4.6" height="4.5" transform="translate(-7.43 46.37) rotate(-22.91)"/><rect class="cls-4" x="107.71" y="39.4" width="4.6" height="1.13" transform="translate(-6.88 45.99) rotate(-22.91)"/><rect class="cls-5" x="103.35" y="41.39" width="4.6" height="4.5" transform="translate(-8.65 44.57) rotate(-22.91)"/><rect class="cls-4" x="102.7" y="41.52" width="4.6" height="1.12" transform="translate(-8.1 44.21) rotate(-22.92)"/><rect class="cls-5" x="98.34" y="43.51" width="4.59" height="4.5" transform="translate(-9.88 42.81) rotate(-22.92)"/><rect class="cls-4" x="97.68" y="43.65" width="4.6" height="1.13" transform="translate(-9.32 42.41) rotate(-22.91)"/><rect class="cls-5" x="93.32" y="45.63" width="4.6" height="4.5" transform="translate(-11.1 41) rotate(-22.91)"/><rect class="cls-4" x="92.67" y="45.77" width="4.6" height="1.13" transform="translate(-10.55 40.67) rotate(-22.93)"/><path class="cls-4" d="m91.06,47.79s-7.85,7.75-20.84-2.39c-12.99-10.15-9.78-18.89-9.78-18.89,0,0,33.52-4.9,30.62,21.28"/><path class="cls-5" d="m86.93,0s9.79-.75,16.14,11.76l10.42,26.67-22.43,9.36s-1.92-6.58-7.64-7.12c-5.72-.53-13.55,8.5-24.83-3.77-11.28-12.27,2.25-27.73,2.25-27.73L86.93,0Z"/><path class="cls-4" d="m95.56,13.51c-1.82,3.66-.32,8.11,3.34,9.92,3.66,1.82,8.11.32,9.93-3.34,1.82-3.66.32-8.11-3.34-9.92-3.66-1.82-8.11-.32-9.92,3.34"/><path class="cls-4" d="m73.91,21.29c-1.82,3.66-.32,8.11,3.34,9.93,3.66,1.82,8.11.32,9.93-3.34,1.82-3.66.32-8.11-3.34-9.92-3.66-1.82-8.11-.32-9.92,3.34"/><path class="cls-7" d="m97.6,14.52c-1.26,2.54-.22,5.62,2.31,6.87,2.54,1.26,5.62.22,6.88-2.31,1.26-2.54.23-5.62-2.31-6.88-2.54-1.26-5.62-.22-6.88,2.32"/><path class="cls-7" d="m76.14,22.19c-1.26,2.54-.22,5.62,2.31,6.87,2.54,1.26,5.62.22,6.88-2.31,1.26-2.54.22-5.62-2.32-6.88-2.54-1.26-5.61-.22-6.87,2.31"/><path class="cls-6" d="m60.83,9.17l2.34-.82s-7.37,9.92-.61,21.13c6.76,11.21,18.23,10.48,25.61,7.25,6.54-2.85,10.6,4.86,7.01,9.34l-4.12,1.72s-1.92-6.58-7.64-7.12c-5.72-.54-13.55,8.5-24.83-3.77-11.28-12.27,2.25-27.73,2.25-27.73"/><polygon class="cls-7" points="103.83 31.35 92.64 35.49 94.65 24.7 103.83 31.35"/><rect class="cls-5" x="119.94" y="82.83" width="4.65" height="4.55" transform="translate(-23.49 54.32) rotate(-22.92)"/><rect class="cls-4" x="119.27" y="82.96" width="4.65" height="1.14" transform="translate(-22.93 53.96) rotate(-22.92)"/><rect class="cls-5" x="114.86" y="84.97" width="4.65" height="4.55" transform="translate(-24.72 52.52) rotate(-22.92)"/><rect class="cls-4" x="114.2" y="85.11" width="4.65" height="1.14" transform="translate(-24.17 52.15) rotate(-22.92)"/><rect class="cls-5" x="109.79" y="87.11" width="4.65" height="4.55" transform="translate(-25.96 50.71) rotate(-22.92)"/><rect class="cls-4" x="109.13" y="87.25" width="4.65" height="1.14" transform="translate(-25.4 50.34) rotate(-22.92)"/><rect class="cls-5" x="104.72" y="89.26" width="4.65" height="4.55" transform="translate(-27.2 48.93) rotate(-22.93)"/><rect class="cls-4" x="104.06" y="89.4" width="4.65" height="1.14" transform="translate(-26.63 48.52) rotate(-22.92)"/><path class="cls-4" d="m102.43,91.44s-7.94,7.84-21.08-2.42c-13.14-10.26-9.89-19.1-9.89-19.1,0,0,33.89-4.95,30.96,21.52"/><path class="cls-5" d="m98.26,43.12s9.9-.76,16.32,11.89l10.53,26.97-22.68,9.46s-1.94-6.66-7.73-7.2c-5.78-.54-13.7,8.59-25.11-3.81-11.41-12.41,2.28-28.05,2.28-28.05l26.39-9.26Z"/><path class="cls-4" d="m106.99,56.77c-1.84,3.71-.33,8.2,3.38,10.04,3.7,1.84,8.2.33,10.04-3.38,1.84-3.7.33-8.2-3.38-10.04-3.71-1.84-8.2-.32-10.04,3.38"/><path class="cls-4" d="m85.09,64.64c-1.84,3.71-.33,8.2,3.38,10.04,3.7,1.84,8.2.33,10.04-3.38,1.84-3.7.33-8.2-3.38-10.04-3.7-1.84-8.2-.33-10.04,3.38"/><path class="cls-7" d="m109.05,57.79c-1.28,2.57-.23,5.68,2.34,6.95,2.57,1.28,5.68.23,6.95-2.34,1.27-2.57.23-5.68-2.34-6.95-2.57-1.27-5.68-.23-6.95,2.34"/><path class="cls-7" d="m87.35,65.55c-1.28,2.57-.23,5.68,2.34,6.95,2.57,1.27,5.68.23,6.95-2.34,1.27-2.57.22-5.68-2.34-6.95-2.57-1.27-5.68-.23-6.95,2.34"/><path class="cls-6" d="m71.87,52.38l2.36-.83s-7.46,10.03-.62,21.37c6.84,11.33,18.43,10.6,25.9,7.34,6.61-2.89,10.72,4.91,7.09,9.45l-4.17,1.73s-1.94-6.66-7.73-7.2c-5.78-.54-13.71,8.59-25.11-3.81-11.41-12.41,2.28-28.05,2.28-28.05"/><polygon class="cls-7" points="115.34 74.81 104.02 79.01 106.06 68.09 115.34 74.81"/></g></svg>