<?xml version="1.0" encoding="UTF-8"?><svg id="Capa_2" xmlns="http://www.w3.org/2000/svg" viewBox="0 0 120.79 106.88"><defs><style>.cls-1{stroke-width:.46px;}.cls-1,.cls-2{fill:#fc0;stroke:#f7941e;}.cls-1,.cls-2,.cls-3,.cls-4{stroke-miterlimit:10;}.cls-2{stroke-width:.85px;}.cls-3{stroke-width:1.39px;}.cls-3,.cls-4{stroke:#231f20;}.cls-3,.cls-5{fill:#ed1c24;}.cls-4{stroke-width:1.46px;}.cls-4,.cls-6{fill:#319dd4;}.cls-7{fill:#231f20;}.cls-7,.cls-8,.cls-6,.cls-9,.cls-5{stroke-width:0px;}.cls-8{fill:#d4eefb;}.cls-9{fill:#fff;}</style></defs><g id="halloween17"><polygon class="cls-4" points="68.72 62.99 81.49 51 82.43 82.07 67.52 78.46 68.72 62.99"/><polygon class="cls-4" points="20.16 75.96 .8 68.42 2.57 95.31 23.28 86.66 20.16 75.96"/><path class="cls-6" d="m36.59,97.5c-11.47,0-20.34-4.98-22.59-12.68-1.53-5.24.1-11.04,4.6-16.34,4.43-5.21,11.13-9.32,18.86-11.58,4.08-1.19,8.19-1.8,12.21-1.8,11.47,0,20.34,4.98,22.59,12.69,1.53,5.24-.1,11.04-4.61,16.34-4.43,5.21-11.13,9.32-18.86,11.58-4.08,1.19-8.19,1.8-12.22,1.8Z"/><path class="cls-7" d="m49.67,55.83c10.81,0,19.66,4.53,21.89,12.16,3.02,10.33-7.26,22.42-22.97,27.01-4.11,1.2-8.18,1.77-12.01,1.77-10.81,0-19.66-4.53-21.89-12.16-3.02-10.33,7.26-22.42,22.97-27.02,4.11-1.2,8.18-1.77,12.01-1.77m0-1.46h0c-4.09,0-8.27.62-12.42,1.83-7.87,2.3-14.69,6.5-19.21,11.81-4.67,5.49-6.35,11.53-4.75,17.02,2.34,8.02,11.49,13.21,23.29,13.21,4.09,0,8.27-.62,12.42-1.83,7.87-2.3,14.69-6.49,19.21-11.81,4.67-5.49,6.35-11.53,4.75-17.01-2.34-8.03-11.49-13.21-23.29-13.21h0Z"/><path class="cls-8" d="m37.67,57.65c-.48.14-.95.31-1.42.47l-10.51,36.92c5.65,2.03,12.85,2.39,20.31.67l3.3-39.82c-3.73.03-7.69.6-11.68,1.76Z"/><path class="cls-8" d="m61.53,58.01c-2.31-.94-4.92-1.57-7.72-1.88-1.03,10.54-1.88,29.2-2.23,37.94,3.14-1.16,6.01-2.64,8.56-4.32.14-8.36.74-22.85,1.39-31.73Z"/><path class="cls-8" d="m24.29,64.25l-6.22,26.05c1.53,1.59,3.45,2.91,5.68,3.93l1.54-30.7c-.34.24-.67.48-1,.72Z"/><polygon class="cls-3" points="104.88 14.59 119.73 7.06 112.3 35.67 99.65 28.4 104.88 14.59"/><polygon class="cls-3" points="57.1 13.47 41.44 1.43 35.88 26.44 57.1 24.07 57.1 13.47"/><path class="cls-5" d="m77.97,39.14c-15.92,0-28.87-8.63-28.87-19.23S62.05.69,77.97.69s28.86,8.62,28.86,19.22-12.95,19.23-28.86,19.23Z"/><path class="cls-7" d="m77.97,1.39c15.56,0,28.17,8.29,28.17,18.52s-12.61,18.53-28.17,18.53-28.17-8.3-28.17-18.53S62.41,1.39,77.97,1.39m0-1.39c-16.3,0-29.56,8.93-29.56,19.91s13.26,19.92,29.56,19.92,29.56-8.94,29.56-19.92S94.27,0,77.97,0h0Z"/><path class="cls-9" d="m77.97,1.43c-.48,0-.95.03-1.42.05l-19.45,30.89c4.63,3.37,11.09,5.61,18.36,6.03L89.1,2.94c-3.41-.97-7.17-1.51-11.13-1.51Z"/><path class="cls-9" d="m99.65,8.13c-1.86-1.47-4.08-2.74-6.54-3.78-3.76,9.35-9.51,26.15-12.16,34.03,3.17-.22,6.19-.8,8.96-1.66,2.35-7.59,6.76-20.66,9.74-28.59Z"/><path class="cls-9" d="m63.99,3.89l-12.63,22.11c.97,1.85,2.38,3.57,4.14,5.11l9.59-27.61c-.37.13-.74.26-1.1.4Z"/><path class="cls-2" d="m104.01,87.08c-10.85,4.31-14.34,7.81-18.66,18.65-4.31-10.84-7.81-14.34-18.65-18.65,10.85-4.31,14.34-7.81,18.65-18.66,4.31,10.85,7.81,14.34,18.66,18.66Z"/><path class="cls-1" d="m27.25,37.68c-5.88,2.33-7.78,4.23-10.11,10.11-2.34-5.88-4.23-7.77-10.11-10.11,5.87-2.34,7.77-4.23,10.11-10.11,2.33,5.88,4.23,7.77,10.11,10.11Z"/></g></svg>