<?xml version="1.0" encoding="UTF-8"?><svg id="Capa_2" xmlns="http://www.w3.org/2000/svg" viewBox="0 0 124.06 121.98"><defs><style>.cls-1{fill:#4e0002;opacity:.3;}.cls-1,.cls-2,.cls-3,.cls-4,.cls-5,.cls-6{stroke-width:0px;}.cls-2{fill:#404040;}.cls-3{fill:#203041;}.cls-4{fill:#333;}.cls-5{fill:#fff;}.cls-6{fill:#f0d045;}</style></defs><g id="halloween6"><path class="cls-5" d="m5.13,82.99c11.1-4.36,9.3-34.12-2.23-37.11,11.54,3,27.58-22.13,20.01-31.34,7.57,9.21,35.32-1.69,34.6-13.59.72,11.9,29.57,19.4,35.99,9.35-6.42,10.05,12.52,33.07,23.62,28.71-11.1,4.36-9.31,34.12,2.23,37.12-11.54-3-27.58,22.13-20.01,31.34-7.57-9.21-35.32,1.69-34.6,13.59-.72-11.9-29.58-19.4-35.99-9.34,6.41-10.05-12.52-33.07-23.62-28.72Z"/><path class="cls-3" d="m64.74,121.98h0c-.49,0-.9-.38-.93-.88-.44-7.29-13.14-13.15-23.37-13.15-5.27,0-9.14,1.51-10.89,4.26-.28.44-.86.56-1.3.29-.28-.18-.43-.49-.43-.8,0-.17.05-.34.15-.5,1.96-3.08,1.38-7.96-1.59-13.39-3.89-7.09-11.78-14.42-18.27-14.42-.94,0-1.82.16-2.63.48-.48.19-1.03-.05-1.22-.53-.04-.11-.07-.23-.07-.34,0-.38.23-.73.6-.87,3.83-1.5,7.41-7.69,6.78-18.14-.63-10.44-4.93-16.16-8.91-17.19-.42-.11-.7-.49-.7-.91,0-.08,0-.16.03-.24.13-.5.65-.8,1.15-.67.56.14,1.14.22,1.73.22,6.22,0,13.19-7.63,16.57-14.81,3.04-6.42,3.31-12.12.74-15.24-.14-.17-.21-.38-.21-.59,0-.27.12-.54.34-.73.4-.33.99-.27,1.32.13,2.11,2.56,5.78,3.1,8.49,3.1,7.35,0,16.49-3.83,21.27-8.91,2.22-2.36,3.32-4.83,3.19-7.13v-.06c0-.49.39-.91.88-.94.51-.03.96.37.99.88.44,7.29,13.14,13.15,23.36,13.15,5.28,0,9.15-1.51,10.9-4.26.28-.44.86-.56,1.3-.28.28.18.43.48.43.79,0,.17-.05.35-.15.51-1.97,3.08-1.39,7.96,1.59,13.39,3.88,7.09,11.78,14.42,18.27,14.42.94,0,1.82-.16,2.63-.48.48-.19,1.03.05,1.22.53.04.11.06.23.06.35,0,.37-.23.73-.6.87-3.82,1.5-7.41,7.69-6.78,18.14.63,10.44,4.93,16.16,8.9,17.19.42.11.7.49.7.91,0,.08-.01.16-.03.24-.13.5-.64.8-1.15.67-.55-.14-1.13-.21-1.72-.21-6.23,0-13.19,7.63-16.58,14.81-3.03,6.42-3.3,12.11-.74,15.24.15.17.22.38.22.6,0,.27-.12.54-.34.73-.4.33-.99.27-1.32-.13-2.11-2.56-5.78-3.1-8.49-3.1-7.35,0-16.49,3.83-21.27,8.91-2.23,2.36-3.33,4.83-3.19,7.13v.06c0,.49-.38.91-.88.94-.02,0-.04,0-.06,0Zm-24.3-15.92c9.45,0,20.46,4.59,24.05,11.03.61-1.53,1.62-3.06,3.01-4.54,5.1-5.41,14.83-9.49,22.64-9.49,2.61,0,4.86.45,6.7,1.31-.9-3.65-.14-8.44,2.28-13.57,3.41-7.21,9.94-14.5,16.43-15.71-3.24-2.69-6.2-8.09-6.73-16.98-.54-8.89,1.76-14.6,4.65-17.66-7.27-.46-15.26-8.14-19.22-15.38-2.31-4.21-3.28-8.18-2.87-11.45-2.38,1.49-5.64,2.28-9.56,2.28-9.44,0-20.45-4.59-24.05-11.03-.61,1.54-1.62,3.06-3.01,4.53-5.1,5.41-14.83,9.5-22.64,9.5-2.61,0-4.87-.45-6.7-1.31.91,3.66.14,8.44-2.28,13.57-3.41,7.21-9.93,14.5-16.43,15.71,3.23,2.7,6.2,8.09,6.73,16.98.53,8.89-1.76,14.6-4.65,17.66,7.27.46,15.26,8.14,19.23,15.37,2.3,4.21,3.28,8.18,2.87,11.45,2.37-1.49,5.64-2.28,9.55-2.28Z"/><path class="cls-3" d="m58.04,9.61c.41,6.86,11.75,12.01,20.79,12.01,4.38,0,8.21-1.21,10-4.01-5.02,7.87,8.12,25.03,17.66,25.03.89,0,1.74-.15,2.55-.47-9.49,3.73-7.96,29.19,1.91,31.76-.55-.14-1.11-.21-1.68-.21-9.66,0-21.56,19.58-15.43,27.02-1.69-2.06-4.57-2.94-7.88-2.94-9.34,0-22.18,7.05-21.73,14.57-.41-6.86-11.75-12.01-20.79-12.01-4.38,0-8.21,1.21-10,4.01,5.02-7.86-8.12-25.03-17.66-25.03-.89,0-1.74.15-2.55.46,9.5-3.73,7.97-29.19-1.91-31.75.55.14,1.11.21,1.68.21,9.66,0,21.56-19.58,15.44-27.02,1.69,2.06,4.57,2.94,7.88,2.94,9.35,0,22.18-7.05,21.73-14.57m30.79,7.99h0m20.21,24.57h0M59.64,9.52l-1.6.1-1.6.09c.13,2.2-1.29,4.21-2.51,5.5-3.95,4.2-11.53,7.37-17.61,7.37-2.14,0-5.04-.41-6.64-2.36-.32-.39-.78-.59-1.24-.59-.36,0-.72.12-1.02.37-.68.56-.78,1.58-.22,2.26,1.97,2.39,1.69,7.06-.74,12.19-3.29,6.96-9.07,12.21-13.46,12.21-.44,0-.87-.05-1.28-.16-.14-.03-.27-.05-.41-.05-.71,0-1.37.48-1.55,1.2-.23.86.29,1.73,1.15,1.96,3.7.96,6.58,6.71,7.02,13.98.44,7.27-1.74,13.33-5.3,14.72l.59,1.5.59,1.5c.6-.24,1.26-.35,1.96-.35,4.7,0,11.26,5.24,14.92,11.92,2.4,4.38,2.9,8.26,1.38,10.64l1.36.86,1.36.87c1.34-2.11,4.42-3.27,8.65-3.27s9.07,1.21,12.87,3.24c3.86,2.06,6.16,4.71,6.32,7.26l1.6-.1,1.6-.1c-.13-2.21,1.29-4.21,2.51-5.5,3.96-4.2,11.53-7.37,17.61-7.37,2.15,0,5.04.41,6.64,2.36.32.38.78.59,1.24.59.36,0,.72-.12,1.02-.37.68-.56.78-1.58.22-2.26-1.96-2.39-1.68-7.06.74-12.19,3.29-6.96,9.07-12.21,13.45-12.21.44,0,.87.05,1.28.16.14.03.27.05.41.05.71,0,1.37-.48,1.56-1.2.22-.86-.29-1.73-1.15-1.96-3.7-.96-6.58-6.71-7.02-13.98-.44-7.25,1.72-13.29,5.26-14.71.61-.23,1.05-.82,1.05-1.51,0-.89-.72-1.6-1.61-1.6h0c-.22,0-.43.04-.61.12-.59.23-1.24.34-1.93.34-4.7,0-11.26-5.24-14.92-11.92-2.39-4.36-2.9-8.22-1.41-10.6.18-.26.28-.57.28-.9,0-.84-.65-1.53-1.47-1.6-.05,0-.09,0-.14,0-.05,0-.09,0-.13,0-.23.02-.44.08-.63.19-.2.11-.37.26-.51.44-.03.04-.06.08-.09.13-1.35,2.1-4.42,3.25-8.64,3.25s-9.07-1.21-12.87-3.24c-3.86-2.06-6.16-4.71-6.31-7.26h0Z"/><path class="cls-3" d="m59.02,25.99c.29,4.67,8.01,8.18,14.17,8.18,2.98,0,5.59-.82,6.81-2.73-3.42,5.36,5.53,17.05,12.04,17.05.6,0,1.18-.1,1.73-.32-6.47,2.54-5.43,19.89,1.3,21.63-.37-.1-.75-.15-1.14-.15-6.58,0-14.69,13.34-10.52,18.41-1.16-1.4-3.11-2-5.37-2-6.37,0-15.11,4.8-14.8,9.93-.28-4.67-8-8.18-14.16-8.18-2.98,0-5.6.82-6.82,2.74,3.42-5.36-5.53-17.05-12.03-17.05-.6,0-1.19.1-1.74.31,6.47-2.54,5.43-19.88-1.3-21.63.38.1.76.14,1.15.14,6.58,0,14.69-13.34,10.51-18.41,1.16,1.4,3.12,2.01,5.37,2.01,6.37,0,15.12-4.8,14.8-9.93m20.98,5.45h0m13.76,16.73h0m-34.75-23.78h-.1c-.89.05-1.56.81-1.51,1.7.08,1.32-.81,2.56-1.57,3.37-2.57,2.72-7.68,4.86-11.63,4.86-1.35,0-3.16-.25-4.13-1.42-.32-.39-.78-.59-1.24-.59-.36,0-.72.12-1.02.37-.68.56-.78,1.58-.22,2.26,1.21,1.47.99,4.45-.57,7.76-2.12,4.5-5.94,8.02-8.7,8.02-.26,0-.51-.03-.74-.09l-.4,1.55-.41,1.55c2.27.59,4.12,4.4,4.4,9.06.28,4.66-1.1,8.66-3.28,9.52-.82.33-1.23,1.26-.91,2.08.25.63.85,1.02,1.49,1.02.2,0,.4-.04.59-.11.34-.14.73-.21,1.15-.21,2.98,0,7.34,3.53,9.72,7.86,1.52,2.78,1.88,5.29.96,6.73-.48.75-.26,1.74.49,2.22.27.17.57.25.86.25.53,0,1.05-.26,1.36-.74.8-1.27,2.8-1.99,5.46-1.99,6.02,0,12.36,3.37,12.56,6.67l1.6-.1,1.6-.1c-.08-1.32.81-2.56,1.57-3.37,2.57-2.72,7.68-4.86,11.63-4.86,1.35,0,3.16.25,4.13,1.42.32.39.77.59,1.24.59.35,0,.72-.12,1.02-.36.68-.57.78-1.58.22-2.26-1.21-1.47-.99-4.44.57-7.76,2.12-4.5,5.95-8.02,8.71-8.02.26,0,.51.03.75.09l.4-1.55.41-1.55c-2.27-.59-4.12-4.4-4.4-9.06-.28-4.64,1.09-8.63,3.25-9.51.14-.05.27-.12.38-.21.05-.04.11-.08.15-.12.32-.29.52-.71.52-1.18,0-.84-.64-1.53-1.46-1.6-.05,0-.1,0-.15,0-.1,0-.2,0-.3.03-.11.02-.22.05-.32.1-.34.13-.71.19-1.12.19-2.99,0-7.34-3.52-9.72-7.86-1.51-2.75-1.87-5.25-.99-6.69.18-.26.28-.57.28-.9,0-.84-.65-1.53-1.47-1.6-.05,0-.09,0-.14,0-.04,0-.09,0-.13,0-.23.02-.44.09-.64.19-.19.11-.37.26-.51.44-.03.04-.06.08-.08.12-.82,1.26-2.8,1.98-5.45,1.98-6.02,0-12.36-3.37-12.56-6.67-.05-.85-.76-1.51-1.6-1.51h0Z"/><path class="cls-3" d="m59.66,36.54c.2,3.27,5.59,5.72,9.89,5.72,2.08,0,3.91-.57,4.76-1.91-2.39,3.74,3.86,11.91,8.41,11.91.42,0,.83-.07,1.21-.22-4.52,1.78-3.79,13.89.91,15.11-.26-.07-.53-.1-.8-.1-4.6,0-10.26,9.32-7.35,12.86-.81-.98-2.17-1.4-3.75-1.4-4.45,0-10.56,3.36-10.34,6.93-.2-3.26-5.6-5.72-9.9-5.72-2.08,0-3.91.57-4.76,1.91,2.39-3.75-3.86-11.91-8.41-11.91-.42,0-.83.07-1.21.22,4.52-1.77,3.79-13.89-.91-15.11.26.07.53.1.8.1,4.6,0,10.26-9.32,7.34-12.86.81.98,2.17,1.4,3.75,1.4,4.45,0,10.56-3.36,10.34-6.94m14.65,3.81h0m9.61,11.69h0m-22.67-15.59l-1.6.1-1.6.1c.05.75-.5,1.5-.97,1.99-1.71,1.82-5.12,3.24-7.77,3.24-1.18,0-2.07-.29-2.5-.82l-1.24,1.02-1.24,1.02c.72.87.54,2.8-.46,4.91-1.39,2.94-3.92,5.33-5.64,5.33-.14,0-.28-.02-.4-.05-.13-.03-.27-.05-.4-.05-.71,0-1.36.48-1.55,1.2-.23.86.29,1.73,1.15,1.96,1.37.35,2.53,2.89,2.71,5.89.18,3.01-.68,5.66-1.99,6.18-.82.32-1.23,1.26-.9,2.08.25.63.85,1.02,1.49,1.02.19,0,.39-.04.59-.11.19-.07.39-.11.62-.11,1.89,0,4.81,2.4,6.36,5.23.96,1.76,1.22,3.37.69,4.21-.48.75-.26,1.74.48,2.22.27.17.57.25.87.25.52,0,1.04-.26,1.35-.74.47-.73,1.74-1.17,3.41-1.17,3.83,0,8.17,2.2,8.29,4.21l1.6-.1,1.6-.1c-.04-.75.5-1.5.97-1.99,1.71-1.81,5.12-3.24,7.77-3.24,1.18,0,2.08.29,2.51.81.32.39.78.59,1.24.59.36,0,.72-.12,1.02-.37.68-.56.78-1.58.22-2.26-.71-.87-.53-2.8.47-4.91,1.38-2.94,3.92-5.33,5.64-5.33.14,0,.28.02.4.05.13.04.27.05.41.05.71,0,1.37-.48,1.55-1.2.22-.86-.29-1.74-1.15-1.96-1.37-.35-2.53-2.88-2.71-5.89-.18-2.98.66-5.62,1.96-6.16.14-.05.26-.12.39-.21.05-.04.1-.08.15-.12.32-.29.52-.71.52-1.18,0-.84-.64-1.53-1.46-1.6-.05,0-.1,0-.15,0-.1,0-.2,0-.3.03-.11.02-.21.05-.31.09-.18.07-.38.1-.6.1-1.89,0-4.81-2.4-6.36-5.24-.95-1.73-1.22-3.32-.71-4.17.17-.26.27-.56.27-.9,0-.89-.71-1.61-1.6-1.61h0c-.57,0-1.08.3-1.36.76-.47.72-1.74,1.15-3.4,1.15-3.83,0-8.17-2.2-8.29-4.21h0Z"/><path class="cls-3" d="m60.21,45.74c.12,2.04,3.49,3.57,6.17,3.57,1.3,0,2.44-.36,2.97-1.19-1.49,2.34,2.41,7.43,5.24,7.43.26,0,.52-.04.75-.14-2.81,1.11-2.36,8.66.57,9.43-.16-.04-.33-.06-.5-.06-2.86,0-6.4,5.81-4.58,8.02-.5-.61-1.36-.88-2.34-.88-2.77,0-6.58,2.09-6.45,4.32-.13-2.03-3.49-3.56-6.17-3.56-1.3,0-2.44.36-2.97,1.19,1.49-2.33-2.41-7.43-5.25-7.43-.26,0-.51.04-.75.14,2.82-1.11,2.37-8.66-.56-9.43.16.04.33.06.5.06,2.87,0,6.4-5.81,4.58-8.02.5.61,1.36.87,2.34.87,2.78,0,6.59-2.1,6.45-4.33m15.14,9.66h0m-13.54-9.76l-1.6.1-1.6.1c.01.15-.1.43-.44.79-.95,1.01-2.93,1.83-4.41,1.83-.64,0-.99-.15-1.1-.29l-1.24,1.02-1.24,1.02c.19.23.26,1.09-.37,2.42-.8,1.7-2.23,2.98-2.97,2.98-.03,0-.07,0-.09-.01-.14-.04-.28-.05-.41-.05-.71,0-1.36.48-1.55,1.2-.22.86.3,1.73,1.15,1.96.44.11,1.13,1.29,1.24,3.12.11,1.83-.44,3.09-.86,3.25-.83.33-1.23,1.26-.91,2.08.25.63.85,1.02,1.49,1.02.19,0,.4-.03.59-.11.05-.02.1-.03.17-.03.86,0,2.52,1.26,3.44,2.95.58,1.07.59,1.79.45,2.01-.48.75-.26,1.74.49,2.22.27.17.57.25.87.25.53,0,1.05-.26,1.35-.74.14-.22.7-.45,1.62-.45,2.25,0,4.52,1.3,4.57,2.06l1.61-.1,1.6-.09c-.01-.15.1-.44.44-.79.95-1.01,2.92-1.83,4.41-1.83.64,0,.99.16,1.1.29.32.39.78.59,1.24.59.36,0,.72-.12,1.02-.37.68-.56.78-1.57.22-2.26-.19-.23-.26-1.09.37-2.42.8-1.7,2.23-2.98,2.97-2.98.04,0,.07,0,.1.01.13.03.27.05.4.05.72,0,1.37-.48,1.56-1.2.22-.86-.29-1.73-1.15-1.96-.44-.11-1.13-1.29-1.24-3.12-.11-1.81.42-3.06.84-3.25.13-.05.26-.12.37-.2.05-.04.1-.08.15-.12.32-.29.52-.71.52-1.18,0-.84-.64-1.52-1.46-1.6-.05,0-.1,0-.15,0-.1,0-.2.01-.3.03-.1.02-.21.05-.3.09-.04.02-.09.02-.15.02-.86,0-2.51-1.26-3.44-2.95-.57-1.04-.59-1.75-.46-1.99.17-.25.26-.56.26-.88,0-.89-.71-1.6-1.6-1.6h0c-.57,0-1.08.3-1.36.75-.15.21-.71.44-1.61.44-2.25,0-4.52-1.3-4.57-2.05h0Z"/><path class="cls-3" d="m63.15,117.69c-.29,0-.52-.22-.53-.51L57.75,4.84c-.01-.3.22-.55.51-.56.3,0,.55.22.56.51l4.86,112.33c.01.3-.22.55-.51.56h-.02Z"/><path class="cls-3" d="m3.7,85.64c-.21,0-.41-.13-.5-.33-.12-.28.01-.59.29-.7l116.66-48.88c.28-.11.59.02.7.29.11.27-.01.59-.29.7L3.91,85.6c-.07.03-.14.04-.21.04Z"/><path class="cls-3" d="m103.4,109.04c-.16,0-.3-.06-.41-.18L20.26,13.17c-.19-.22-.17-.56.05-.76.23-.19.56-.17.76.06l82.72,95.69c.19.22.17.56-.05.75-.11.09-.23.13-.35.13Z"/><path class="cls-3" d="m26.66,113.63c-.1,0-.2-.03-.3-.09-.25-.16-.31-.5-.15-.74L96.96,7.93c.17-.24.5-.31.74-.14.25.17.31.5.15.74L27.11,113.39c-.11.15-.28.24-.45.24Z"/><path class="cls-3" d="m123.53,75.97s-.08,0-.13-.02L.41,46.41c-.29-.07-.46-.36-.39-.64.07-.29.36-.47.65-.39l122.99,29.55c.29.07.46.35.39.64-.06.25-.28.41-.52.41Z"/><path class="cls-1" d="m99.48,31.51c.74-1.66,1.39-3.34,1.84-5.1.16-.58-.74-.82-.88-.25-.84,3.24-2.42,6.18-3.64,9.28-.58,1.49-1.53,3.98-.92,5.61.28.74,1.34,1.16,1.79,1.87,1.14,1.84,1.33,4.03,1.37,6.13.03,1.59-1.82,1.41-3.12,1.73-1.11.28-2.48.79-3.8.99.34-.82.63-1.63.86-2.4,1.25-4.18-.77-9.39-5.82-8.95-.57.05-1.13.16-1.66.32-3.28.06-5.76,2.58-7.65,5.3-1.17-.91-2.02-1.98-3.05-3.07,1.2-.82,2.63-1.72,3.89-2.29,1.2-.55,2.91-1.64,3.82-2.54.99-.98,1.49-2.67,1.84-3.97.49-1.81,1.01-3.62,1.28-5.47.09-.58-.8-.83-.89-.25-.21,1.43-.56,2.79-.95,4.17-.51,1.77-.77,3.99-2.36,5.19-2.34,1.77-5.15,2.99-7.56,4.69-.24.17-.32.5-.09.72,1.24,1.24,2.23,2.51,3.57,3.57-.36.56-.7,1.17-1.01,1.8-.62-.95-1.43-1.89-2.12-1.75-1.02.21-1.8.97-2.78,1.33-.89.32-1.77.64-2.64,1.03-.54.24-.07,1.04.46.8,1.3-.59,2.7-.91,3.93-1.62.7-.4,1.08-.68,1.76,0,.34.34.65.77.94,1.23-.44,1.07-.77,2.2-.93,3.33-.05,0-.09,0-.14.01-1.09-1-1.99-2.28-3.25-3.06-.13-.08-.34-.09-.47,0-3.39,2.47-7.18,3.44-10.98,5.04-.53.22-.34,1.08.24.89,1.95-.64,3.73,11.42,3.81,12.03.07.57.92.62.92,0v-.23c0-.1-.03-.17-.07-.24-.42-3.14-1.14-6.34-2.01-9.39-.23-.8-.62-2.04-1.32-2.7,2.36-.89,4.77-1.6,7.04-2.77.58-.3,1.14-.64,1.69-.98,1.19-.76,1.76-.05,2.59.83.22.23.43.46.64.68-.31.04-.63.09-.93.15-2.46.51-4.17,2.25-4.73,4.32-1.51,2.02-1.97,4.85-.73,7.13.28.5.62.96,1.01,1.37-.39.11-.72.19-.87.2-.54.04-.6.71-.12.91.93.39.75,3.72.42,4.4-.26.54.53,1,.8.47.55-1.13.35-2.5.25-3.73-.04-.48-.15-.94-.37-1.31.22-.06.46-.13.71-.21,2.63,2.16,6.73,2.93,9.87,2.7.17-.01.34-.04.51-.06.02.01.04.04.06.04.37.09.73.11,1.09.1-.38.25-.75.5-1.09.79-.83.73-1.64,1.51-2.66,1.96-.55.24-.08,1.04.46.8,1.03-.46,1.76-1.24,2.63-1.92.83-.65,1.73-1.18,2.54-1.85.22-.18.15-.47-.02-.64,1.96-.77,3.63-2.13,4.42-4.25.63-1.71.47-3.35-.16-4.84.08-.07.18-.14.27-.21,0,0,.01-.01.02-.02,1.44.08,2.9-.01,4.35-.05-.09.26-.14.54-.15.86-.09,1.66-.62,3.29-1,4.9-.65,2.75-1.14,5.53-1.64,8.31-1.29-.98-3.13-.73-4.77-.47-3.43.53-6.69,2.41-9.71,4.02-.53.28-.06,1.08.47.8,2.12-1.13,4.23-2.22,6.48-3.08,1.83-.7,6.02-2.13,7.45-.09.21.3.77.32.85-.11.5-2.76.97-5.53,1.58-8.27.31-1.37.65-2.74.99-4.11.24-.96.08-2.15.61-2.99.19-.3-.06-.7-.4-.7-1.37,0-2.77.1-4.16.09.92-.97,1.74-2.11,2.47-3.33h1.95c1.5,0,1.93.7,2.04,2.08.07.84.82,1.89,1.17,2.65.56,1.19,1.12,2.39,1.67,3.59.24.54,1.04.07.8-.47-.72-1.6-1.48-3.19-2.22-4.78-.43-.94-.52-1.93-.94-2.86-.22-.48-.54-1.14-1.17-1.14h-2.78c.27-.5.52-1.01.76-1.52.72-.09,1.45-.26,2.14-.4,1.71-.35,3.85-.74,5.48-1.34,1.75-.64.33-5.53-.08-6.79-.39-1.19-1.04-2.33-1.96-3.18-1-.91-.51-1.84-.35-3.03.29-2.2,1.66-4.46,2.55-6.47Z"/><path class="cls-2" d="m80.77,33.17c-.58.05-1.13.16-1.66.32-3.55.06-6.17,3.01-8.11,5.98-2.24,3.41-3.78,8.48-1.34,12.15,2.72,4.11,7.7,3.31,10.96.53,2.81-2.4,4.95-6.56,5.98-10.02,1.25-4.17-.77-9.39-5.81-8.95Z"/><path class="cls-2" d="m76.29,47.66c-2.77-1.95-6.75-2.36-9.98-1.68-2.45.51-4.16,2.24-4.72,4.32-1.51,2.03-1.97,4.85-.73,7.13,2.07,3.79,7.69,5.1,11.69,4.81,3.34-.24,6.72-1.7,7.95-5.03,1.44-3.85-1.19-7.41-4.22-9.54Z"/><path class="cls-2" d="m91.66,55.75c-.72-1.6-1.48-3.19-2.22-4.78-.43-.94-.52-1.93-.94-2.86-.22-.48-.54-1.14-1.17-1.14h-5.32c-.25,0-.46.21-.46.46v.23c0,.33.29.49.58.44.07,0,.14-.02.2-.03.09-.01.2-.1.26-.19h3.38c1.49,0,1.93.7,2.04,2.08.07.84.82,1.89,1.17,2.65.56,1.2,1.12,2.39,1.67,3.6.24.54,1.04.07.8-.47Z"/><path class="cls-2" d="m85.72,51.14c-1.99,0-4.03.22-6.01,0-.59-.07-.59.86,0,.92,1.73.2,3.51.06,5.27.02-.09.26-.14.54-.15.85-.08,1.66-.62,3.29-1,4.9-.65,2.74-1.14,5.53-1.64,8.31-1.3-.98-3.13-.73-4.78-.47-3.43.53-6.69,2.41-9.71,4.02-.52.28-.06,1.08.47.8,2.12-1.13,4.24-2.22,6.48-3.08,1.83-.7,6.02-2.13,7.45-.09.21.29.77.32.85-.11.5-2.76.96-5.53,1.58-8.27.31-1.37.65-2.74.99-4.11.24-.96.08-2.15.61-2.99.19-.3-.06-.7-.4-.7Z"/><path class="cls-2" d="m93.1,24.24c.74-1.66,1.39-3.34,1.84-5.1.15-.58-.74-.82-.89-.25-.84,3.23-2.42,6.18-3.64,9.28-.59,1.49-1.53,3.98-.92,5.61.27.74,1.34,1.16,1.78,1.87,1.14,1.84,1.33,4.03,1.37,6.13.03,1.59-1.82,1.41-3.12,1.73-1.75.44-4.16,1.46-5.99.92-.57-.17-.82.72-.25.89,1.35.4,2.82-.02,4.17-.29,1.72-.35,3.85-.74,5.48-1.34,1.75-.65.34-5.53-.08-6.8-.39-1.19-1.03-2.33-1.96-3.17-1-.91-.51-1.84-.35-3.03.29-2.21,1.66-4.47,2.55-6.47Z"/><path class="cls-2" d="m78.34,21.21c-.21,1.42-.56,2.79-.96,4.17-.51,1.77-.77,3.99-2.36,5.19-2.34,1.77-5.15,2.99-7.56,4.69-.24.17-.32.5-.09.72,1.51,1.51,2.61,3.09,4.48,4.23.51.31.97-.49.47-.8-1.66-1.01-2.64-2.35-3.91-3.69,1.2-.82,2.62-1.71,3.88-2.29,1.2-.55,2.91-1.64,3.82-2.54.98-.98,1.48-2.68,1.84-3.98.5-1.81,1.01-3.61,1.28-5.47.09-.58-.8-.83-.89-.25Z"/><path class="cls-2" d="m70.87,43.05c-.33-.76-1.87-3.68-3.06-3.45-1.03.21-1.8.97-2.78,1.33-.89.32-1.77.64-2.64,1.03-.54.25-.07,1.04.47.8,1.29-.59,2.7-.91,3.93-1.62.7-.4,1.08-.68,1.76,0,.62.62,1.19,1.58,1.54,2.38.24.54,1.04.07.8-.47Z"/><path class="cls-2" d="m70.01,46.81c-1.97-.85-3.04-3.03-4.85-4.16-.13-.08-.34-.09-.47,0-3.39,2.47-7.18,3.44-10.98,5.04-.54.22-.34,1.08.24.89,1.95-.64,3.73,11.42,3.81,12.03.07.57.92.61.92,0v-.23c0-.1-.03-.17-.06-.24-.42-3.14-1.14-6.34-2.02-9.39-.23-.8-.62-2.04-1.32-2.7,2.36-.89,4.77-1.6,7.04-2.77.58-.3,1.14-.63,1.69-.98,1.19-.76,1.76-.05,2.6.83.89.95,1.72,1.95,2.94,2.47.54.23,1.01-.56.47-.8Z"/><path class="cls-2" d="m64.92,57.61c-.05-.59-.97-.6-.92,0,.05.63-2.5,1.35-3,1.39-.55.04-.6.71-.12.91.94.39.75,3.72.42,4.4-.26.53.53,1,.8.47.55-1.13.35-2.51.25-3.73-.04-.48-.15-.94-.37-1.31,1.28-.32,3.04-1.07,2.95-2.13Z"/><path class="cls-2" d="m75.78,61.3c-.69.02-1.4.15-2.08.06v-.06c0-.59-.92-.59-.92,0v.46c0,.2.14.39.34.45.37.09.73.11,1.09.1-.38.25-.75.5-1.09.79-.83.73-1.64,1.51-2.66,1.96-.55.24-.07,1.04.46.8,1.03-.46,1.76-1.23,2.64-1.92.82-.65,1.73-1.18,2.54-1.85.31-.26.05-.8-.33-.79Z"/><path class="cls-6" d="m72.73,55.64c0,2.43-1.93,4.4-4.32,4.4s-4.32-1.97-4.32-4.4,1.93-4.4,4.32-4.4,4.32,1.97,4.32,4.4Z"/><path class="cls-4" d="m69.95,55.64c0,.87-.69,1.57-1.54,1.57s-1.54-.7-1.54-1.57.69-1.57,1.54-1.57,1.54.7,1.54,1.57Z"/></g></svg>