<?xml version="1.0" encoding="UTF-8"?><svg id="Capa_2" xmlns="http://www.w3.org/2000/svg" viewBox="0 0 125.42 101.42"><defs><style>.cls-1{opacity:.5;}.cls-1,.cls-2,.cls-3,.cls-4,.cls-5,.cls-6,.cls-7,.cls-8{stroke-width:0px;}.cls-1,.cls-8{fill:#fff;}.cls-2{fill:#4e0002;opacity:.3;}.cls-3{fill:#5a3721;}.cls-4{fill:#281e03;}.cls-5{fill:#df3c31;}.cls-6{fill:#d3c8a6;}.cls-7{fill:#be1e2d;}</style></defs><g id="halloween8"><path class="cls-5" d="m75.47,1.64c10.99,2.1,48.79-9.5,49.93,9.34.67,11.08-20.36,15.95-25.55,22.73,30.22,7.88-20.46,16.41-22.72,17.23,3.94.19,8.59,3.26,12.54,4.13-.03.07.07,1.76.13,1.81-9.35,8.38-79.71,7.01-79.09-11.75.45-13.62,79.16-19.05,55.18-33.37,5.96-6.33,16.17-10.44,25.03-10.12"/><path class="cls-7" d="m10.99,5.26S-6.91,13.33,2.98,32.31c9.89,18.99,69.19,43.79,102.17,5.94C138.13.4,97.46,5.26,97.46,5.26c0,0-32.32,4.18-51.16,1.64C27.47,4.35,15.55,2.21,10.99,5.26Z"/><path class="cls-2" d="m16.22,11.8S.05,15.96,8.98,25.75c8.93,9.79,62.5,22.58,92.3,3.06,29.8-19.51-6.95-17.01-6.95-17.01,0,0-29.2,2.16-46.21.85-17.02-1.31-27.78-2.41-31.91-.85Z"/><path class="cls-4" d="m27.02,14.28s-19.22,2.18-9.9,16.49c9.32,14.3,44.54,22.06,65.21,11.39,20.67-10.67,26.49-23.51,19.51-27.88-6.99-4.36-22.13-1.7-34.07,0-11.93,1.7-40.76,0-40.76,0Z"/><path class="cls-6" d="m54.32,16.94s-5.9-2.95-5.97,3.45c-.07,6.39,2.76,6.65,6.98,5.96,4.22-.68,3.46-8.81-.04-9.44"/><path class="cls-6" d="m62.09,16.94s5.89-2.95,5.97,3.45c.08,6.39-2.75,6.65-6.98,5.96-4.22-.68-3.46-8.81.04-9.44"/><path class="cls-6" d="m72.44,16.27s-4.63-1.11-3.84,3.13c.78,4.24,1.02,6.35,5.73,4.24,4.71-2.12,1.05-7.63-1.88-7.37Z"/><path class="cls-6" d="m44.41,16.27s4.63-1.11,3.85,3.13c-.78,4.24-1.02,6.35-5.73,4.24-4.71-2.12-1.05-7.63,1.88-7.37Z"/><path class="cls-6" d="m79.69,16.31c-1.94-.48-3.63-.22-2.91,2.99,2.27,10.03,8.41-1.56,7.12-1.55-.55,0-2.48-1.01-4.21-1.43Z"/><path class="cls-6" d="m35.88,14.77c-1.94-1.42-3.63-.65-2.91,8.88,2.27,29.84,8.41-4.63,7.12-4.62-.55,0-2.48-3-4.22-4.27Z"/><path class="cls-6" d="m85.59,14.77c1.94-1.42,3.63-.65,2.91,8.88-2.27,29.84-8.41-4.63-7.12-4.62.55,0,2.48-3,4.22-4.27Z"/><path class="cls-6" d="m84.08,15.16l4.29,2.83s2.57-7.47-4.29-4.51c-6.86,2.95,0,1.68,0,1.68Z"/><path class="cls-1" d="m59.02,52.99c0,.96-2.69,1.75-6.01,1.75s-6.01-.78-6.01-1.75,2.69-1.75,6.01-1.75,6.01.78,6.01,1.75Z"/><path class="cls-8" d="m66.56,52.99c0,.97-.79,1.76-1.76,1.76s-1.76-.79-1.76-1.76.79-1.76,1.76-1.76,1.76.79,1.76,1.76Z"/><path class="cls-3" d="m39.24,42.85s4.48-14.14,21.67-7.73c0,0,10.1-16.35,23.18,1.51-2.69,8.2-35.19,11.08-44.84,6.22Z"/><path class="cls-7" d="m84.08,97.68c0,2.06-1.67,3.74-3.74,3.74h0c-2.06,0-3.73-1.67-3.73-3.74v-56.17c0-2.06,1.67-3.74,3.73-3.74h0c2.06,0,3.74,1.67,3.74,3.74v56.17Z"/></g></svg>