<?xml version="1.0" encoding="UTF-8"?><svg id="Capa_2" xmlns="http://www.w3.org/2000/svg" xmlns:xlink="http://www.w3.org/1999/xlink" viewBox="0 0 92.52 120.75"><defs><style>.cls-1{clip-path:url(#clippath);}.cls-2{fill:none;}.cls-2,.cls-3,.cls-4,.cls-5,.cls-6,.cls-7,.cls-8,.cls-9,.cls-10,.cls-11,.cls-12,.cls-13,.cls-14,.cls-15{stroke-width:0px;}.cls-16{clip-path:url(#clippath-1);}.cls-17{clip-path:url(#clippath-4);}.cls-18{clip-path:url(#clippath-3);}.cls-19{clip-path:url(#clippath-2);}.cls-20{clip-path:url(#clippath-6);}.cls-21{clip-path:url(#clippath-5);}.cls-22{opacity:.3;}.cls-23{opacity:.4;}.cls-4{fill:#4c5749;}.cls-5{fill:#2b2b28;}.cls-6{fill:#720e32;}.cls-7{fill:#5b0d16;}.cls-8{fill:#58595b;}.cls-9{fill:#141414;}.cls-10{fill:#231f20;}.cls-11{fill:#c00741;}.cls-12{fill:#aaa688;}.cls-13{fill:#7f7b61;}.cls-14{fill:#fff;}.cls-15{fill:#ecd700;}</style><clipPath id="clippath"><rect class="cls-2" x="5.94" y="16.56" width="8.59" height="11.83"/></clipPath><clipPath id="clippath-1"><rect class="cls-2" x="19.22" y="15.33" width="12.34" height="12.84"/></clipPath><clipPath id="clippath-2"><rect class="cls-2" x="30.7" y="8.38" width="11.02" height="4.65"/></clipPath><clipPath id="clippath-3"><rect class="cls-2" x="14.64" y="22.8" width="6.1" height="6.13"/></clipPath><clipPath id="clippath-4"><rect class="cls-2" x="14.4" y="20.11" width="3.39" height="3.41"/></clipPath><clipPath id="clippath-5"><rect class="cls-2" x="19.4" y="39.38" width="3.57" height="6.58"/></clipPath><clipPath id="clippath-6"><rect class="cls-2" x="23.48" y="36.88" width="2.96" height="7.74"/></clipPath></defs><g id="halloween1"><path class="cls-9" d="m2.85,56.76l6.35,18.2,4-22.71s1.98-13.68-10.35,4.5"/><path class="cls-9" d="m90.29,56.76l-8.37,18.2-5.28-22.71s-2.6-13.68,13.65,4.5"/><path class="cls-5" d="m6.96,81.29l-6.44,13.81,5.22,1.88,8.18-11.2-6.8,19.21,6.62,8.1,5.29-15.85,7.13-9.59s-.09-26.37-19.2-6.37"/><path class="cls-13" d="m81.78,70.69s5.15-14.77,9.62-2.01c4.48,12.76-5.37,27.6-13.21,18.39-7.83-9.21,3.58-16.37,3.58-16.37"/><path class="cls-13" d="m13.6,70.69s-5.15-14.77-9.63-2.01c-4.48,12.76,5.37,27.6,13.21,18.39,7.83-9.21-3.58-16.37-3.58-16.37"/><path class="cls-5" d="m76.49,73.15l9.32,17.51-1.27,6.66-6.82-6.66,2.87,20.99-5.39,1.79-1.81-6.72-1.74,10.3-5.72-3-2.34-18.94s-10.09-27.31,12.88-21.94"/><path class="cls-12" d="m66.91,9.89c-8.36-2.46-18.13-2.26-26.33-1.29-.48,3.12-2.76,5.92-6.85,5.92-2.28,0-4-.87-5.15-2.18-.13.41-.29.83-.49,1.25-1.23,2.54-2.88,4.25-5.22,5.87-1.32.92-2.97,1.17-4.57.92-.93,2.15-2.86,3.81-5.79,3.99-2.47,4.72-4.58,10.94-5.22,18.96-1.82,22.9,5.82,49.8,5.82,49.8l5.46,8.73s11.99,18.9,28.71,18.9,29.08-19.99,32.72-32.35c3.64-12.36,5.81-41.44,5.81-41.44,0,0-.37-31.62-18.9-37.08"/><path class="cls-15" d="m73.62,52.76c-.79-2.57-2.43-4.28-4.56-5.79-2.54-1.8-6.05-1.08-8.31.86-1.39.66-2.51,1.78-3.46,3.13-1.09,1.56-1.45,3.78-1.62,5.62-.21,2.32.7,4.94,2.44,6.52,1.65,1.49,4.01,2.7,6.32,2.4,2.21-.29,2.04-.24,4.06-1.11.8-.34,1.54-1.02,2.17-1.53,1.43-1.17,2.28-2.85,2.9-4.54.62-1.69.59-3.85.06-5.55"/><path class="cls-3" d="m55,65.5s9.22,12.29,21.95-2.2c0,0-10.54,22.83-21.95,2.2"/><path class="cls-3" d="m36.56,65.06s-7.03,12.29-20.64,5.27c0,0,14.49,17.12,20.64-5.27"/><path class="cls-3" d="m32.9,51.67c-1.34-1.34-3.17-2.1-5.07-2.1-.5,0-1,.06-1.49.17-.48-.1-.98-.17-1.49-.17h-.6c-3.18,0-6.06,2.19-6.91,5.26-.79,2.87.41,6.76,3.29,8.09,1.05.48,2.09.83,3.13,1.19,1.61.91,3.42,1.25,5.37.72,1.22-.34,2.27-.95,3.16-1.84.59-.59,1-1.2,1.3-1.85.11-.14.22-.29.33-.44.86-1.16.89-2.62,1.07-3.97.23-1.76-.9-3.87-2.1-5.06"/><path class="cls-5" d="m89.09,34.53c-.28-1.02-8.94-33.03-46.71-33.03-1.15,0-2.25.06-3.33.16-.06.22-.13.42-.21.63,3.6,4,1.9,12.22-5.11,12.22-2.27,0-3.99-.87-5.15-2.17-.13.41-.3.83-.5,1.25-1.23,2.54-2.88,4.25-5.22,5.87-1.32.92-2.97,1.17-4.57.92-.98,2.27-3.08,4.01-6.3,4.01-1.15,0-2.15-.22-3.01-.6-.36.68-.7,1.36-1.03,2.05-.16.46-.37.9-.62,1.31C1.2,40.51,0,54.1,0,54.1c0,0,5.48,5.26,5.19,4.43-.29-.83,6.34,1.1,6.63.28.29-.83,2.88,3.88,2.88,4.98s1.73,2.49,2.31,3.6c.58,1.11,3.46-3.6,3.75-4.98.29-1.38,3.46,1.66,3.46,1.66l5.76-11.91v7.2l22.3-14.4-1.54,9.41,5.48-5.81v3.88l12.97-9.14.29,8.85,7.21-4.98-.29,6.64,4.04-2.49s-1.44,4.43-1.73,5.81c-.29,1.38,3.17.56,3.17.56l2.31-4.98-1.15,9.97,6.05-5.54s.29-21.59,0-22.61"/><path class="cls-3" d="m40.13,10.26c-.94,2.39-3.06,4.25-6.4,4.25-2.28,0-4-.87-5.16-2.18-.13.41-.29.83-.49,1.26-1.23,2.54-2.88,4.25-5.22,5.87-1.31.92-2.97,1.17-4.55.93,0,.01-.02.03-.03.04-.42.95-1.03,1.8-1.84,2.46-3.72,5.41-7.11,13.22-8.36,24.43,0,0,7.8-20.72,19.48-26.1,0,0-14.06,11.06-13.17,34.52,0,0,3.81-19.76,24.62-23.56,0,0-11.36,4.48-14.75,21.94,0,0,3.69-17.47,32.5-19.59,0,0-9.97-14.93-28.97-6.4,0,0,8.81-14.74,30.67-12.29,18.5,2.08,1.01-6.3-18.35-5.58"/><path class="cls-7" d="m25.95,89.65c.07-.07.14-.14.22-.22,4.65,6.9,12.56,12.6,21.38,12.6,7.87,0,14.58-3.72,18.54-10.72,1.53-2.72,1.36-3.49,4.46-4.53.09-.48.11-1.24,0-1.73-1.89.03-3.23,1.67-4.88,2.55-3.11,1.66-6.95,2.15-10.38,2.69-6.15.96-12.44,2.08-18.69,1.67-2.81-.19-5.96-.51-8.27-2.24-1.56-1.17-2.9-5.44-5.46-3.07-2.77,2.55.62,5.38,3.08,3"/><path class="cls-14" d="m36.43,94.88c1.11-.72.15-1.91.63-2.91-.15,0-.3,0-.45-.01-1.12-.08-2.3-.18-3.46-.38-.13.84-.34,1.67-.19,2.51,1.19-.01,2.48.08,3.47.79"/><path class="cls-14" d="m44.25,94.42c1.46-.52,1.33-1.36.97-2.71-1.1.11-2.2.2-3.3.26-.06,1.7-.06,3.31,2.33,2.45"/><path class="cls-14" d="m64.65,89.82c.16-.27.11-.97-.01-1.73-.91.4-1.86.72-2.84.98.15.66.34,1.31.47,2.02.6-.36,2-.63,2.38-1.27"/><path class="cls-14" d="m37.34,91.98c.48.79-.02,2.14.38,3.09.96-.27,2.53.46,3.38-.54.42-.5.36-1.57.29-2.54-1.36.06-2.7.05-4.05-.01"/><path class="cls-14" d="m54.55,100.94l-11.93-3.72-1.15,3.46c.05.17.13.33.19.49,1.9.54,3.86.85,5.89.85,2.46,0,4.81-.37,7-1.08"/><path class="cls-8" d="m40.37,103.59s13.63,4.7,21.03-4.03c0,0-6.93,13.21-21.03,4.03"/><path class="cls-4" d="m60.73,56.06c0-1.82,1.48-3.29,3.29-3.29s3.3,1.48,3.3,3.29-1.47,3.3-3.3,3.3-3.29-1.48-3.29-3.3"/><path class="cls-14" d="m70.6,60.01c0,1.45-1.18,2.63-2.63,2.63s-2.63-1.18-2.63-2.63,1.18-2.63,2.63-2.63,2.63,1.18,2.63,2.63"/><path class="cls-14" d="m64.68,52.77c0,1.45-1.18,2.64-2.63,2.64s-2.63-1.18-2.63-2.64,1.18-2.63,2.63-2.63,2.63,1.18,2.63,2.63"/><polygon class="cls-6" points="3.43 39.19 1.46 44.43 31.32 40.04 48.87 27.31 58.53 13.7 55.9 6.39 27.81 28.13 3.43 39.19"/><path class="cls-11" d="m3.43,39.19l-2.43-3.57,1.6-3.39,1.72.26-1.64-1.85,1.16-1.94,1.86.88S-1.17,17.2,15.56,14.5l2.39,2.11-.55-1.96,1.68-.95,2.57-3.62,6.94-.27,2.12,1.61-.91-1.84,1.67-.95,1.63-2.42,3.76-4.58,5.8-1.63,3.49,2.49,2.65-.94,7.1,4.85s-7.11,14.04-7.09,14.53c.01.49-16.74,14.03-16.74,14.03l-28.64,4.24Z"/><g class="cls-23"><g class="cls-1"><path class="cls-14" d="m6.38,28.39s-3.26-10.28,8.15-11.83c0,0-7.5,1.6-8.15,11.83"/></g></g><g class="cls-22"><g class="cls-16"><path class="cls-10" d="m19.22,18.33s8.11,1.82,6.65,9.84c0,0,1.2-8.27,5.69-12.84,0,0-3.61,1.66-5.2,5.29,0,0-4.5-3.47-7.15-2.29"/></g></g><g class="cls-22"><g class="cls-19"><path class="cls-10" d="m30.7,11.41s8.38-4.76,11.02,1.61c0,0-1.76-9.28-11.02-1.61"/></g></g><path class="cls-10" d="m31.98,28.49s8.8.61,11.32-12.03c0,0,6.71,11.79-11.32,12.03"/><path class="cls-10" d="m40.26,5.45s7.7-3.31,8.62,2.8c0,0-.53-9.02-8.62-2.8"/><path class="cls-10" d="m12.81,31.4s5.84,7.15,13.96,1.9c0,0,2.79,3.21,7.27-1.36,0,0-6.55,1.13-7.13-1.8,0,0-6.19,4.79-14.1,1.27"/><path class="cls-10" d="m12.74,21.41s-6.77,1.86-4.43,14.08c0,0-6.64-9.35,4.43-14.08"/><path class="cls-10" d="m44.03,8.67s5.44,2.51-.73,7.79c0,0,10.17-2.3.73-7.79"/><path class="cls-10" d="m43.3,16.46s-3.73,5.31-10.15,2.79c0,0,6.02,5.44,10.15-2.79"/><g class="cls-23"><g class="cls-18"><path class="cls-14" d="m20.08,23.43c1.05,1.03.83,2.95-.49,4.3-1.32,1.34-3.24,1.6-4.29.57-1.05-1.03-.83-2.95.49-4.3,1.32-1.35,3.24-1.6,4.29-.57"/></g></g><g class="cls-23"><g class="cls-17"><path class="cls-14" d="m17.43,20.47c.58.57.46,1.64-.27,2.39-.73.75-1.8.89-2.38.32-.58-.57-.46-1.64.27-2.39.73-.75,1.8-.89,2.39-.32"/></g></g><path class="cls-11" d="m24.51,35.54s-4.83.44-5.27,5.71c-.44,5.27,3.51,5.27,3.51,5.27l6.15-3.51-4.39-7.46Z"/><g class="cls-22"><g class="cls-21"><path class="cls-10" d="m21,39.38c-.71.45-2.45,4.4-1.1,4.83.66.21,1.11-1.51,1.22-1.95,0,.61-.25,3.93.99,3.69.58-.11.96-2.68.86-3.26-.79.32-.29,1.74-1.17,2.06.06-1,.63-2.83-.34-3.49-.55.46-.76,1.1-1.13,1.63-.12-1.04.32-2.32.47-3.4"/></g></g><g class="cls-22"><g class="cls-20"><path class="cls-10" d="m25.5,38.28c0,.45.58,1.05.75,1.67.26.95.3,2.35-.18,3.23-.9,1.65-1.25-.38-1.23-1.48-.04.79-.33,2.5-1,2.91-.3-1.03-.73-4.09.22-4.92.74.41.47,1.63,1.19,2.08.93-1.24-.77-3.75-1.17-4.9,1.07-.01,1.48,1.66,1.74,2.5"/></g></g><path class="cls-11" d="m25.06,44.65c-1.45.96-3.76,1.98-2.74,3.87,1.32,2.43,2.84-1.2,3.63-2.41-.46,1.71,1.68.48,1.51-.73-.28-2-4.65-.2-4.81,1.36"/><path class="cls-11" d="m25.51,35.52c.95.01,2.23-.35,2.83.55-.47,0-.99.07-1.36.32,1.7.17,3.17,1.09,4.74,1.59-2.01,1.07-4-.91-5.98-.82.84.31,1.66,1.06,1.94,1.9-.86.43-1.87-.85-2.64-1.17-.32-.13-1.43-.21-1.62-.48-.84-1.19,2.01-3.63,3.02-3.89.08.84-.86,1.19-.95,1.99"/></g></svg>