<?xml version="1.0" encoding="UTF-8"?><svg id="Capa_2" xmlns="http://www.w3.org/2000/svg" viewBox="0 0 90.7 120.07"><defs><style>.cls-1{opacity:.1;}.cls-2{opacity:.2;}.cls-3{fill:#54996d;}.cls-3,.cls-4,.cls-5,.cls-6,.cls-7,.cls-8,.cls-9,.cls-10,.cls-11{stroke-width:0px;}.cls-4{fill:#a2b889;}.cls-5{fill:#37351c;}.cls-6{fill:#cb2815;}.cls-7{fill:#df3c31;}.cls-8{fill:#85512c;}.cls-9{fill:#fff;}.cls-10{fill:#e9dec0;}.cls-11{fill:#f15a29;}</style></defs><g id="halloween16"><path class="cls-7" d="m0,58.33c0,21.68,17.57,39.26,39.26,39.26h9.97c21.68,0,39.25-17.58,39.25-39.26v-2.94c0-21.68-17.57-39.26-39.25-39.26h-9.97C17.57,16.12,0,33.7,0,55.38v2.94Z"/><path class="cls-6" d="m7.12,43.98c0,22.78,23.65,46.87,46.43,46.87s36.08-24.09,36.08-46.87S71.14,2.73,48.37,2.73,7.12,21.2,7.12,43.98Z"/><path class="cls-10" d="m8.19,41.25c0,22.78,23.65,46.86,46.44,46.86s36.07-24.08,36.07-46.86S72.23,0,49.45,0,8.19,18.47,8.19,41.25Z"/><path class="cls-3" d="m49.01,24.62c0,7.85,6.36,14.21,14.2,14.21s14.21-6.36,14.21-14.21-6.36-14.21-14.21-14.21-14.2,6.36-14.2,14.21Z"/><path class="cls-4" d="m50.7,24.62c0,6.91,5.6,12.52,12.52,12.52s12.52-5.61,12.52-12.52-5.61-12.52-12.52-12.52-12.52,5.6-12.52,12.52Z"/><path class="cls-5" d="m57.24,23.32c0,4.02,3.26,7.28,7.28,7.28s7.28-3.26,7.28-7.28-3.26-7.28-7.28-7.28-7.28,3.26-7.28,7.28Z"/><path class="cls-10" d="m42.11,26.32c0,3.46,2.8,6.26,6.26,6.26s6.26-2.8,6.26-6.26-2.8-6.26-6.26-6.26-6.26,2.8-6.26,6.26Z"/><g class="cls-2"><path class="cls-8" d="m13.06,74.62c9.36,4.92,20.6,6.21,31.43,2.68,21.3-6.93,36.62-36.37,29.68-57.67-.8-2.45-1.87-4.68-3.14-6.7,12.09,7.54,20.35,19.45,18.36,33.84-3.12,22.58-30.21,42.71-52.78,39.59-9.29-1.28-17.42-5.57-23.56-11.74Z"/></g><path class="cls-11" d="m46.11,86.24l.29-1.27c-6.25-1.43-16.15-6.91-19.57-11.84l-1.07.75c3.57,5.16,13.88,10.88,20.35,12.37Z"/><path class="cls-11" d="m40.17,82.3l.4-1.25c-6.21-1.97-14.9-11.14-20.95-19.08l-1.04.79c2.99,3.93,13.4,16.94,21.59,19.53Z"/><path class="cls-11" d="m16.74,62.7l-.34-1.48c-.54-2.43.45-5.83,2.99-7.09l-.58-1.17c-2.56,1.26-3.84,4.25-3.86,6.9-.53-.45-.6-.47-.89-.41l.13.64-.36.55c.07.05.29.24.55.45.59.5.89.75,1.04.84l1.31.77Z"/><path class="cls-11" d="m18.82,64.12l.62-1.12c1.76-3.19,3.86-2.52,6.51-1.67,1.83.59,3.73,1.19,5.54.34l-.56-1.18c-1.35.63-2.92.13-4.59-.41-2.35-.75-5.23-1.67-7.45,1.34-.25-.39-.54-.78-.82-1.17-.53-.73-1.07-1.48-1.24-1.98l-.48-1.41-.72,1.31c-.51.93-.36,1.64-.24,2.21.05.24.1.46.1.69h1.31c0-.12,0-.25-.02-.36.08.1.15.21.22.31.49.68.99,1.37,1.26,1.94l.55,1.17Z"/><path class="cls-11" d="m12.23,57.19l1.31-.08c-.07-1.2-.34-2.32-.6-3.41-.68-2.85-.95-4.52,1.25-5.8l-.66-1.13c-3.15,1.83-2.5,4.58-1.87,7.24.25,1.03.5,2.1.57,3.19Z"/><path class="cls-11" d="m47.09,85.58c.72-.21,1.38-.24,2.02-.26,1.06-.04,2.15-.09,3.36-.91,2.8,1.79,6.14,1.44,8.63-.94l-.91-.94c-2.15,2.07-4.98,2.29-7.35.56l-.41-.29-.38.31c-1.03.84-1.9.87-2.99.92-.68.03-1.46.06-2.33.31l.36,1.26Z"/><path class="cls-11" d="m45,81.06c2.6,0,3.67-1.1,4.12-2.07,1.06-2.32-.61-5.8-2.73-7.91l-.92.93c2.05,2.04,3.15,4.92,2.46,6.43-.56,1.24-2.27,1.38-3.59,1.28l-.1,1.31c.26.02.52.03.75.03Z"/><path class="cls-11" d="m51.29,79.22l.38-.34s.69-.9,1.13-1.73c.79.41,1.71.38,2.61-.13l-.65-1.14c-.67.38-1.26.32-1.74-.18l-.49.44-.59-.22c-.06.13-.39.69-.7,1.2-.16-.27-.31-.53-.46-.79l-.85-1.44-.59.52c-1.29,1.13-1,1.95-.63,2.63.08.15.15.28.15.38l1.31-.03c0-.41-.18-.72-.32-.97-.06-.12-.12-.22-.14-.31.26.44.52.89.78,1.32l-.08.18.85.6Z"/><path class="cls-11" d="m45.93,81.05c0-.24.07-.47.15-.73.12-.44.28-.99.11-1.69l-.14-.61-.62.11c-.36.06-1.58-.09-1.82-.18h0s-.01-.19-.01-.19c-.27.02-.73.06-.9.47l.09.7c.28.36,1.38.49,2.15.52-.02.17-.07.34-.12.53-.08.3-.18.64-.19,1.05l1.31.04Z"/><path class="cls-11" d="m64.49,85.56c.8-.31,1.77-.78,2.54-1.76.18.25.36.52.48.71l.54.8.56-.5c1.19-1.06,2.73-3.15,3.13-4.22l-1.23-.46c-.24.68-1.26,2.13-2.23,3.17-.31-.46-.61-.86-.88-1.1l-.63-.58-.39.76c-.6,1.16-1.53,1.63-2.36,1.95l.47,1.22Z"/><path class="cls-11" d="m73.06,80.3c1.03-.54,1.95-1.51,2.84-2.44.24-.25.48-.5.71-.73.45.2.94.24.94.24l.71.07.02-.71c.02-.9-.09-2.2-.75-3.27l-.46.25.37-.4-.92-.06-.1.89c.4.65.53,1.46.55,2.13h-.24s-.48-.61-.48-.61l-.38.26v.08c-.29.29-.59.61-.91.94-.82.85-1.67,1.74-2.5,2.18l.61,1.16Z"/><path class="cls-11" d="m9.29,46.03l1.31-.02c-.04-2.59.89-10.01,3.44-12.98l-.99-.86c-2.95,3.43-3.8,11.47-3.76,13.86Z"/><path class="cls-11" d="m11.31,42.92c.44,0,.61-.44.89-1.17.15-.4.36-.93.57-1.38.4.26.83.51,1.25.74.48.28.96.56,1.38.84l.78.5.21-.9c.18-.78.27-.95.29-.97-.07.1-.28.2-.44.16l.24-.62.11-.64c-.12-.03-.41-.1-.71.08-.22.14-.38.36-.54.82-.22-.14-.45-.27-.68-.4-.61-.36-1.22-.71-1.76-1.08l-.53-.37-.38.54c-.39.57-.76,1.52-1.02,2.22-.11.28-.18.51-.24.6l.4.21-.54-.05c-.05.65.35.81.53.85.07.02.13.02.19.02Z"/><path class="cls-11" d="m34.46,82.56l.7-1.1c-5.59-3.52-23.78-18.88-25.14-28.76-.18-1.26-.07-2.36.32-3.33.06.04.13.08.19.12l.32.2.34-.19c.41-.23.39-.5.32-1.98v-.03l1.44-3.42-2.58,2.86c-.07.08-.14.16-.21.24-.18-.41-.29-.87-.4-1.36-.13-.57-.27-1.15-.54-1.7l-1.18.57c.2.42.32.91.44,1.43.18.75.37,1.57.86,2.29-.65,1.29-.86,2.79-.63,4.48,1.5,10.89,20.91,26.64,25.74,29.69Z"/><path class="cls-11" d="m56.7,87.67c2.8,0,5.47-.5,7.87-1.81l-.63-1.15c-6.06,3.33-14.42.93-21.8-1.18-1.96-.57-3.83-1.1-5.55-1.5l-.29,1.28c1.69.39,3.53.92,5.48,1.48,4.83,1.38,10.07,2.89,14.93,2.89Z"/><path class="cls-11" d="m46.23,90.19l.06-1.31c-19.97-.87-36.79-22.66-40.94-42.34l-1.28.27c4.25,20.16,21.58,42.47,42.17,43.38Z"/><path class="cls-11" d="m57.51,90.67c5.09,0,10.5-1.22,13.19-5.71l-1.12-.68c-4.21,7.01-16.24,5.1-21.21,3.96l-.3,1.27c2.21.51,5.74,1.15,9.44,1.15Z"/><g class="cls-1"><path class="cls-9" d="m23.58,21.22c0,7.21,10.13,13.05,22.63,13.05s22.63-5.84,22.63-13.05-10.13-13.05-22.63-13.05-22.63,5.85-22.63,13.05Z"/></g><path class="cls-7" d="m68.73,116.36c0,2.05,1.67,3.72,3.72,3.72h0c2.05,0,3.72-1.66,3.72-3.72v-30.32c0-2.05-1.67-3.72-3.72-3.72h0c-2.06,0-3.72,1.66-3.72,3.72v30.32Z"/></g></svg>