<?xml version="1.0" encoding="utf-8"?>
<!-- Generator: Adobe Illustrator 27.7.0, SVG Export Plug-In . SVG Version: 6.00 Build 0)  -->
<svg version="1.1" id="Capa_1" xmlns="http://www.w3.org/2000/svg" xmlns:xlink="http://www.w3.org/1999/xlink" x="0px" y="0px"
	 viewBox="0 0 250 150" style="enable-background:new 0 0 250 150;" xml:space="preserve">
<style type="text/css">
	.st0{fill:#4BE063;}
	.st1{fill:#727F89;}
</style>
<g>
	<g>
		<path class="st0" d="M9.42,22.77H43.9c19.65,0,23.26,12.97,24.46,30.08c0.27,4.41,0.94,9.09,4.14,9.09c3.48,0,4.41-4.68,4.95-9.09
			c2.41-17.11,6.15-30.08,25.8-30.08h33.15c-3.61,22.46-2.67,57.48,3.21,80.2H90.82c3.74-18.18,7.89-46.78-0.53-46.78
			c-7.22,0-5.75,27.94-6.82,46.78H52.99c-1.07-18.85,0.4-46.78-6.82-46.78c-8.42,0-4.28,28.6-0.53,46.78H6.21
			C12.09,80.24,13.03,45.22,9.42,22.77z"/>
		<path class="st0" d="M146.83,65.14c0-33.95,17.11-45.05,41.44-45.05c13.37,0,30.74,3.07,53.47,0.4v26.33
			c-11.5-3.88-20.99-5.61-29.81-5.61c-15.91,0-20.05,6.01-20.05,16.71c0,7.89,1.47,13.23,6.01,13.23c5.88,0,6.55-6.15,4.28-19.38
			l39.57-0.8c-2.54,15.91-2.54,38.36,0,54.27c-22.72-2.67-41.44,0.4-53.47,0.4C163.94,105.64,146.83,90.54,146.83,65.14z"/>
	</g>
	<g>
		<path class="st1" d="M35.54,116.53h5.53l3.67,5.18h0.19l3.67-5.18h5.53v16.34h-5.46v-8.54h-0.14l-3.6,4.74h-0.19l-3.6-4.74H41
			v8.54h-5.46V116.53z"/>
		<path class="st1" d="M61.13,122.53v1.38h8.64v3.78h-8.64v1.4h8.64v3.78H56.34v-14.12h13.42v3.78H61.13z"/>
		<path class="st1" d="M71.87,118.75h4.86l3.5,4.46h0.19l3.5-4.46h4.86v14.12h-4.79v-7.84h-0.14l-3.41,3.8H80.2l-3.41-3.8h-0.14
			v7.84h-4.79V118.75z"/>
		<path class="st1" d="M90.52,125.8c0-4.01,3.27-7.28,7.31-7.28c4.02,0,7.28,3.27,7.28,7.28c0,4.04-3.27,7.31-7.28,7.31
			C93.79,133.1,90.52,129.84,90.52,125.8z M100.4,125.77c0-1.42-1.14-2.57-2.57-2.57c-1.45,0-2.59,1.14-2.59,2.57
			c0,1.45,1.14,2.59,2.59,2.59C99.26,128.37,100.4,127.22,100.4,125.77z"/>
		<path class="st1" d="M118.59,127.48l3.11,5.39h-5.04l-2.82-5.21h-2.17v5.21h-4.79v-14.12h10.16c2.26,0,4.72,1.35,4.72,4.41
			C121.74,125.31,120.36,126.94,118.59,127.48z M111.66,123.93h4.74c0.37,0,0.7-0.33,0.7-0.72c0-0.47-0.33-0.7-0.7-0.7h-4.74V123.93
			z"/>
		<path class="st1" d="M127.65,127.69l-6.84-8.94h5.84l3.27,4.46h0.16l3.17-4.46h5.81l-6.63,8.94v5.18h-4.79V127.69z"/>
		<path class="st1" d="M146.31,124.7c0-4.74,3.71-8.43,8.66-8.43c4.88,0,8.08,3.13,8.33,6.93h-5.23c-0.14-0.91-1.35-2.17-3.25-2.17
			c-1.89,0-3.48,1.35-3.48,3.57s1.66,3.69,3.41,3.69c1.35,0,2.29-0.47,2.89-1.45h-2.87v-1.73h8.54c-0.05,4.3-3.41,8.01-8.36,8.01
			S146.31,129.46,146.31,124.7z"/>
		<path class="st1" d="M173.83,131.24h-5.09l-0.47,1.63h-5.37l4.72-14.12h7.33l4.72,14.12h-5.37L173.83,131.24z M172.79,127.46
			l-1.38-4.93h-0.23l-1.38,4.93H172.79z"/>
		<path class="st1" d="M180.65,118.75h4.86l3.5,4.46h0.19l3.5-4.46h4.86v14.12h-4.79v-7.84h-0.14l-3.41,3.8h-0.23l-3.41-3.8h-0.14
			v7.84h-4.79V118.75z"/>
		<path class="st1" d="M204.56,122.53v1.38h8.64v3.78h-8.64v1.4h8.64v3.78h-13.42v-14.12h13.42v3.78H204.56z"/>
	</g>
</g>
</svg>
