<?xml version="1.0" encoding="utf-8"?>
<!-- Generator: Adobe Illustrator 27.8.1, SVG Export Plug-In . SVG Version: 6.00 Build 0)  -->
<svg version="1.1" id="Capa_1" xmlns="http://www.w3.org/2000/svg" xmlns:xlink="http://www.w3.org/1999/xlink" x="0px" y="0px"
	 viewBox="0 0 128 58" style="enable-background:new 0 0 128 58;" xml:space="preserve">
<style type="text/css">
	.st0{fill:#4BE063;}
	.st1{fill:#1E1E1E;}
</style>
<path class="st0" d="M128,0.06c-4.72,31.1-31.57,54.93-63.99,54.93C31.55,54.99,4.67,31.1,0-0.06L128,0.06z"/>
<g>
	<g>
		<g>
			<path class="st1" d="M32.12,13.41h9.57c5.45,0,6.45,3.6,6.79,8.34c0.07,1.22,0.26,2.52,1.15,2.52c0.96,0,1.22-1.3,1.37-2.52
				c0.67-4.75,1.71-8.34,7.16-8.34h9.2c-1,6.23-0.74,15.94,0.89,22.25H54.7c1.04-5.04,2.19-12.98-0.15-12.98
				c-2,0-1.59,7.75-1.89,12.98h-8.45c-0.3-5.23,0.11-12.98-1.89-12.98c-2.34,0-1.19,7.93-0.15,12.98H31.23
				C32.86,29.36,33.12,19.64,32.12,13.41z"/>
			<path class="st1" d="M70.24,25.17c0-9.42,4.75-12.5,11.49-12.5c3.71,0,8.53,0.85,14.83,0.11v7.3c-3.19-1.08-5.82-1.56-8.27-1.56
				c-4.41,0-5.56,1.67-5.56,4.63c0,2.19,0.41,3.67,1.67,3.67c1.63,0,1.82-1.71,1.19-5.38l10.98-0.22c-0.71,4.41-0.71,10.64,0,15.05
				c-6.3-0.74-11.49,0.11-14.83,0.11C74.98,36.4,70.24,32.21,70.24,25.17z"/>
		</g>
	</g>
</g>
</svg>
